<?xml version="1.0" encoding="utf-8"?>
<!-- Generator: Adobe Illustrator 16.0.0, SVG Export Plug-In . SVG Version: 6.00 Build 0)  -->
<!DOCTYPE svg PUBLIC "-//W3C//DTD SVG 1.1//EN" "http://www.w3.org/Graphics/SVG/1.1/DTD/svg11.dtd">
<svg version="1.1" id="Layer_1" xmlns="http://www.w3.org/2000/svg" xmlns:xlink="http://www.w3.org/1999/xlink" x="0px" y="0px"
	 width="720px" height="188px" viewBox="0 0 720 188" enable-background="new 0 0 720 188" xml:space="preserve">
<g>
	<g>
		<path fill="#006838" d="M91.349,103.853l-0.936-5.309l6.488-1.144l1.943-2.775L95.3,74.521l-2.775-1.943l-6.488,1.144L85.1,68.413
			l24.085-4.246l0.936,5.309l-6.488,1.145l-1.943,2.775l3.545,20.104l2.775,1.943l6.488-1.145l0.936,5.309L91.349,103.853z
			 M93.039,113.438l-0.867-4.916l24.085-4.247l0.867,4.916L93.039,113.438z"/>
		<path fill="#006838" d="M137.502,95.715l-1.205-3.386L126,78.483l-1.13,0.199l3.293,18.68l-6.193,1.092l-6.249-35.439l6.292-1.109
			l1.205,3.386l10.297,13.845l1.13-0.199l-3.293-18.678l6.193-1.093l6.249,35.439L137.502,95.715z M122.53,108.238l-0.867-4.916
			l24.085-4.247l0.867,4.916L122.53,108.238z"/>
		<path fill="#006838" d="M161.685,91.451l-10.224,1.803l-6.249-35.439l10.224-1.803c11.896-2.098,14.947,5.727,16.646,15.361
			C173.78,81.007,173.58,89.354,161.685,91.451z M152.02,103.038l-0.867-4.916l24.085-4.247l0.867,4.916L152.02,103.038z
			 M163.143,63.219c-1.509-1.661-3.113-2.138-5.817-1.661l-2.064,0.364l-2.186,3.122l3.302,18.727l3.123,2.187l2.064-0.364
			c2.704-0.477,4.048-1.473,4.898-3.549L163.143,63.219z"/>
	</g>
	<g>
		<path fill="#006838" d="M179.824,88.253l-0.936-5.309l6.488-1.145l1.943-2.775l-3.545-20.104l-2.775-1.943l-6.488,1.145
			l-0.936-5.309l24.085-4.247l0.936,5.309l-6.488,1.144l-1.943,2.775l3.545,20.104l2.775,1.943l6.488-1.144l0.936,5.309
			L179.824,88.253z M181.514,97.837l-0.867-4.916l24.085-4.246l0.867,4.916L181.514,97.837z"/>
	</g>
	<g>
		<path fill="#006838" d="M222.682,57.687l-0.901-5.112c-1.173-1.769-3.093-2.597-5.305-2.206c-2.704,0.477-4.421,1.945-4.907,4.361
			l3.232,18.334c0.931,2.116,2.388,3.482,5.189,2.988c1.376-0.242,2.744-1.396,4.445-3.826l1.214-1.734l-1.144-6.486l6.391-1.127
			l2.799,15.875l-6.391,1.127l-0.069-0.393l-2.312-1.619l-0.393,0.068c-1.174,2.539-2.551,3.645-5.009,4.078
			c-7.815,1.377-11.865-6.931-13.581-16.663c-1.655-9.388-1.53-18.735,9.53-20.687c7.963-1.403,13.126,4.021,14.486,11.738
			L222.682,57.687z M211.005,92.638l-0.867-4.916l24.085-4.247l0.867,4.916L211.005,92.638z"/>
		<path fill="#006838" d="M250.978,76.468c-11.109,1.959-14.141-7.188-15.744-16.281s-1.874-18.676,9.235-20.635
			c11.108-1.958,14.131,7.138,15.735,16.231S262.086,74.509,250.978,76.468z M240.495,87.438l-0.867-4.916l24.085-4.247l0.867,4.916
			L240.495,87.438z M251.283,47.728c-1.234-2.113-3.105-2.949-5.808-2.473c-2.704,0.477-4.176,1.902-4.613,4.311l3.302,18.727
			c1.235,2.113,3.105,2.949,5.809,2.473c2.703-0.477,4.175-1.902,4.612-4.311L251.283,47.728z"/>
		<path fill="#006838" d="M299.654,67.123l-6.249-35.439l6.39-1.126l4.706,26.689l3.585,2.51l13.271-2.34l1.005,5.702
			L299.654,67.123z M299.476,77.038l-0.867-4.916l24.085-4.248l0.867,4.916L299.476,77.038z"/>
		<path fill="#006838" d="M329.243,61.905l-6.249-35.439l21.579-3.805l0.988,5.604l-12.928,2.279l-2.187,3.124l0.667,3.784
			l2.775,1.942l11.158-1.968l0.988,5.604l-11.158,1.968l-1.943,2.775l0.85,4.817l3.122,2.187l13.469-2.375l0.988,5.603
			L329.243,61.905z M328.966,71.837l-0.867-4.916l24.085-4.246l0.867,4.916L328.966,71.837z"/>
		<path fill="#006838" d="M375.052,53.828l-0.936-3.585l-1.833-4.644l-9.929,1.751l-0.134,4.99l0.347,3.689l-6.98,1.23l0.93-32.955
			l-0.347-3.689l12.781-2.254l0.936,3.586l12.145,30.649L375.052,53.828z M358.457,66.638l-0.867-4.916l24.085-4.247l0.866,4.916
			L358.457,66.638z M364.5,25.89l-1.573,0.277L362.59,39.2l2.712,2.156l2.162-0.381l1.811-2.954L364.5,25.89z"/>
	</g>
	<g>
		<path fill="#006838" d="M399.629,26.485l-0.901-5.112c-1.174-1.769-3.094-2.597-5.306-2.206c-2.703,0.477-4.421,1.945-4.907,4.362
			l3.233,18.334c0.931,2.116,2.388,3.481,5.189,2.987c1.377-0.242,2.744-1.396,4.444-3.825l1.215-1.734l-1.145-6.487l6.391-1.127
			l2.8,15.876l-6.391,1.127l-0.069-0.394l-2.313-1.619l-0.393,0.069c-1.174,2.539-2.551,3.644-5.008,4.077
			c-7.815,1.378-11.865-6.93-13.581-16.662c-1.655-9.389-1.53-18.736,9.529-20.687c7.963-1.404,13.126,4.021,14.486,11.737
			L399.629,26.485z M387.952,61.437l-0.867-4.916l24.085-4.246l0.867,4.916L387.952,61.437z"/>
	</g>
	<g>
		<path fill="#006838" d="M427.926,45.267c-7.914,1.396-12.453-3.076-13.778-10.596l-4.151-23.545l6.193-1.093l4.281,24.281
			c0.416,2.359,1.185,3.847,2.292,4.665l7.864-1.387c0.761-1.148,0.975-2.809,0.559-5.168l-4.281-24.281l6.193-1.092l4.151,23.545
			C438.575,38.116,435.84,43.871,427.926,45.267z M417.443,56.236l-0.867-4.916l24.086-4.247l0.866,4.916L417.443,56.236z"/>
		<path fill="#006838" d="M447.21,41.104l-6.249-35.439l21.578-3.805l0.988,5.604L450.6,9.743l-2.187,3.123l0.667,3.785l2.776,1.941
			l11.157-1.967l0.988,5.604l-11.157,1.968l-1.944,2.775l0.85,4.816l3.123,2.188l13.468-2.375l0.987,5.602L447.21,41.104z
			 M446.934,51.036l-0.867-4.916l24.086-4.246l0.866,4.916L446.934,51.036z"/>
		<path fill="#006838" d="M564.896,30.236l-0.866-4.916l24.084-4.247l0.867,4.916L564.896,30.236z"/>
		<path fill="#006838" d="M594.386,25.036l-0.866-4.916l24.084-4.246l0.867,4.916L594.386,25.036z"/>
		<path fill="#006838" d="M623.877,19.837l-0.867-4.916l24.085-4.247l0.867,4.916L623.877,19.837z"/>
		<path fill="#006838" d="M653.367,14.637L652.5,9.721l24.085-4.247l0.867,4.916L653.367,14.637z"/>
	</g>
	<g>
		<path fill="#006838" d="M291.258,130.18c-11.108,1.959-14.141-7.187-15.744-16.279c-1.604-9.094-1.874-18.676,9.235-20.634
			c8.454-1.491,12.539,3.566,14.816,11.02l-7.17,1.873l-0.832-4.719c-1.234-2.113-3.105-2.949-5.809-2.473
			c-2.704,0.477-4.175,1.902-4.612,4.31l3.302,18.728c1.234,2.113,3.105,2.95,5.809,2.474c2.703-0.478,4.175-1.902,4.612-4.311
			l-0.832-4.719l7.378-0.693C301.821,122.539,299.712,128.689,291.258,130.18z M280.382,141.22l-0.867-4.915l24.085-4.247
			l0.867,4.915L280.382,141.22z"/>
		<path fill="#006838" d="M324.944,123.48l-2.306-13.075l-2.776-1.943l-4.719,0.832l-1.943,2.775l2.306,13.075l-6.194,1.092
			l-6.249-35.44l6.194-1.092l2.141,12.141l2.775,1.943l4.719-0.832l1.944-2.775l-2.141-12.141l6.192-1.092l6.249,35.439
			L324.944,123.48z M309.873,136.02l-0.867-4.915l24.085-4.247l0.867,4.915L309.873,136.02z"/>
		<path fill="#006838" d="M355.958,118.012l-0.937-3.586l-1.832-4.645l-9.929,1.751l-0.134,4.991l0.346,3.689l-6.979,1.23
			l0.93-32.955l-0.347-3.69l12.78-2.253l0.936,3.586l12.145,30.65L355.958,118.012z M339.363,130.819l-0.867-4.915l24.084-4.246
			l0.867,4.914L339.363,130.819z M345.405,90.071l-1.572,0.277l-0.337,13.033l2.711,2.157l2.163-0.381l1.811-2.954L345.405,90.071z"
			/>
		<path fill="#006838" d="M384.613,112.959l-3.433-19.465l-1.278,0.226l-0.442,2.661l0.239,3.658l-5.701,1.006l-1.026-3.52
			l-1.327-2.351l-1.277,0.226l3.432,19.465l-6.193,1.093l-6.249-35.441l7.324-1.291l1.133,3.551l4.724,8.393l1.376-0.243
			l1.568-9.501l-0.15-3.725l7.226-1.273l6.249,35.44L384.613,112.959z M368.854,125.619l-0.867-4.914l24.085-4.247l0.867,4.915
			L368.854,125.619z"/>
		<path fill="#006838" d="M408.154,94.718l-3.539,0.624l-1.943,2.775l1.994,11.306l-6.391,1.127l-6.249-35.44l12.289-2.167
			c6.193-1.092,11.998,1.939,13.229,8.919C418.775,88.842,414.348,93.626,408.154,94.718z M398.344,120.42l-0.867-4.915
			l24.086-4.247l0.866,4.915L398.344,120.42z M404.436,78.801l-2.654,0.468l-2.186,3.122l0.944,5.358l2.775,1.942l2.949-0.52
			c3.49-0.616,4.979-2.804,4.398-6.098C410.082,79.781,407.926,78.185,404.436,78.801z"/>
	</g>
	<g>
		<path fill="#006838" d="M426.151,105.635l-0.936-5.31l6.488-1.145l1.942-2.774l-3.545-20.104l-2.774-1.942l-6.488,1.144
			l-0.937-5.309l24.085-4.247l0.937,5.31l-6.488,1.144l-1.943,2.774l3.545,20.104l2.775,1.942l6.488-1.144l0.936,5.31
			L426.151,105.635z M427.842,115.219l-0.867-4.916l24.085-4.246l0.867,4.915L427.842,115.219z"/>
		<path fill="#006838" d="M467.814,99.048c-11.108,1.959-14.141-7.188-15.744-16.279c-1.604-9.094-1.873-18.676,9.235-20.635
			s14.131,7.138,15.734,16.231C478.644,87.458,478.924,97.089,467.814,99.048z M457.332,110.019l-0.867-4.915l24.085-4.247
			l0.867,4.915L457.332,110.019z M468.119,70.308c-1.234-2.113-3.104-2.949-5.808-2.473c-2.704,0.477-4.176,1.902-4.613,4.311
			L461,90.873c1.235,2.113,3.105,2.95,5.81,2.473c2.703-0.477,4.175-1.901,4.611-4.31L468.119,70.308z"/>
	</g>
	<g>
		<path fill="#006838" d="M501.798,92.295l-1.205-3.387l-10.297-13.845l-1.13,0.199l3.293,18.679l-6.193,1.092l-6.249-35.44
			l6.292-1.109l1.205,3.387l10.297,13.845l1.131-0.199l-3.294-18.679l6.193-1.092l6.249,35.44L501.798,92.295z M486.825,104.817
			l-0.867-4.916l24.086-4.246l0.866,4.914L486.825,104.817z"/>
		<path fill="#006838" d="M526.945,88.62c-8.257,1.457-13.309-2.468-15.209-10.951l7.373-1.301l0.806,4.572
			c1.09,1.58,3.125,2.489,6.025,1.979c4.03-0.711,5.017-3.166,4.592-5.574c-1.309-7.422-17.694-1.188-19.896-13.673
			c-1.188-6.733,3.065-10.778,9.603-11.932c6.833-1.204,12.089,1.873,13.88,9.159l-7.372,1.301l-0.65-3.688
			c-1.347-1.029-2.737-1.443-4.802-1.079c-2.852,0.503-4.379,2.19-3.971,4.501c0.962,5.457,17.521,0.205,19.879,13.574
			C538.451,82.587,533.631,87.442,526.945,88.62z M516.315,99.616l-0.866-4.914l24.085-4.247l0.866,4.915L516.315,99.616z"/>
		<path fill="#006838" d="M560.878,81.878l-2.306-13.076l-2.776-1.943l-4.719,0.832l-1.942,2.775l2.306,13.076l-6.194,1.092
			l-6.249-35.441l6.194-1.092l2.141,12.143l2.774,1.941l4.719-0.832l1.944-2.773l-2.141-12.143l6.192-1.092l6.249,35.44
			L560.878,81.878z M545.806,94.417l-0.866-4.915l24.085-4.247l0.866,4.915L545.806,94.417z"/>
	</g>
	<g>
		<path fill="#006838" d="M573.607,79.634l-0.937-5.31l6.488-1.144l1.943-2.775l-3.545-20.104l-2.775-1.943l-6.488,1.145
			l-0.936-5.31l24.085-4.247l0.936,5.31l-6.488,1.144l-1.943,2.775l3.545,20.104l2.775,1.943l6.488-1.145l0.937,5.31L573.607,79.634
			z M575.297,89.218l-0.866-4.915l24.085-4.247l0.866,4.915L575.297,89.218z"/>
	</g>
	<g>
		<path fill="#006838" d="M614.601,58.314l-3.54,0.624l-1.942,2.775l1.993,11.306l-6.39,1.127l-6.249-35.44l12.288-2.167
			c6.193-1.092,11.998,1.939,13.229,8.919C625.221,52.438,620.794,57.223,614.601,58.314z M604.789,84.017l-0.866-4.915
			l24.085-4.247l0.866,4.915L604.789,84.017z M610.882,42.397l-2.655,0.468l-2.187,3.122l0.945,5.359l2.775,1.943l2.949-0.521
			c3.49-0.616,4.979-2.805,4.398-6.099C616.528,43.378,614.371,41.782,610.882,42.397z"/>
		<path fill="#006838" d="M663.771,73.616l-0.867-4.915l24.085-4.247l0.867,4.916L663.771,73.616z"/>
		<path fill="#006838" d="M693.261,68.417l-0.867-4.916l24.085-4.246l0.867,4.914L693.261,68.417z"/>
	</g>
</g>
<g>
	<g>
		<path fill="#006838" d="M4.548,129.018l-0.867-4.916l24.085-4.247l0.867,4.916L4.548,129.018z"/>
		<path fill="#006838" d="M34.039,123.817l-0.867-4.916l24.085-4.247l0.867,4.916L34.039,123.817z"/>
		<path fill="#006838" d="M63.528,118.617l-0.867-4.916l24.085-4.246l0.867,4.916L63.528,118.617z"/>
		<path fill="#006838" d="M91.328,103.833l-0.936-5.309l6.488-1.145l1.943-2.775l-3.545-20.104l-2.775-1.943l-6.488,1.145
			l-0.936-5.309l24.085-4.247l0.936,5.309l-6.488,1.144l-1.943,2.775l3.544,20.104l2.775,1.943l6.488-1.144l0.936,5.309
			L91.328,103.833z M93.019,113.418l-0.867-4.916l24.085-4.247l0.867,4.916L93.019,113.418z"/>
		<path fill="#006838" d="M137.481,95.694l-1.205-3.387L125.98,78.463l-1.131,0.2l3.293,18.678l-6.193,1.092l-6.249-35.439
			l6.292-1.109l1.206,3.387l10.297,13.846l1.13-0.199l-3.293-18.68l6.193-1.092l6.249,35.439L137.481,95.694z M122.509,108.218
			l-0.867-4.916l24.085-4.247l0.867,4.916L122.509,108.218z"/>
		<path fill="#006838" d="M161.663,91.431l-10.224,1.803l-6.249-35.439l10.224-1.803c11.895-2.098,14.947,5.727,16.646,15.361
			C173.759,80.985,173.559,89.333,161.663,91.431z M151.999,103.018l-0.867-4.916l24.085-4.247l0.867,4.916L151.999,103.018z
			 M163.121,63.198c-1.509-1.661-3.113-2.138-5.817-1.661l-2.064,0.364l-2.187,3.122l3.302,18.727l3.123,2.187l2.063-0.364
			c2.704-0.477,4.049-1.473,4.899-3.549L163.121,63.198z"/>
	</g>
	<g>
		<path fill="#006838" d="M179.804,88.231l-0.937-5.309l6.488-1.144l1.943-2.775L183.754,58.9l-2.775-1.943l-6.488,1.144
			l-0.936-5.309l24.085-4.246l0.936,5.309l-6.488,1.144l-1.943,2.775l3.545,20.104l2.774,1.943l6.488-1.144l0.937,5.309
			L179.804,88.231z M181.494,97.817l-0.867-4.916l24.085-4.247l0.867,4.916L181.494,97.817z"/>
	</g>
	<g>
		<path fill="#006838" d="M222.662,57.665l-0.901-5.111c-1.174-1.77-3.093-2.598-5.305-2.207c-2.703,0.477-4.421,1.946-4.908,4.363
			l3.233,18.334c0.931,2.115,2.388,3.48,5.189,2.986c1.377-0.242,2.744-1.396,4.445-3.824l1.214-1.734l-1.144-6.488l6.39-1.127
			l2.8,15.877l-6.391,1.127l-0.069-0.395l-2.312-1.619l-0.393,0.07c-1.175,2.539-2.551,3.643-5.009,4.075
			c-7.815,1.378-11.865-6.929-13.581-16.661c-1.655-9.388-1.53-18.736,9.529-20.688c7.963-1.403,13.126,4.021,14.487,11.739
			L222.662,57.665z M210.984,92.616l-0.867-4.916l24.085-4.246l0.867,4.916L210.984,92.616z"/>
		<path fill="#006838" d="M250.958,76.446c-11.109,1.958-14.14-7.187-15.744-16.28s-1.875-18.677,9.234-20.636
			c11.108-1.959,14.132,7.139,15.735,16.232S262.066,74.487,250.958,76.446z M240.475,87.417l-0.867-4.916l24.085-4.247l0.867,4.916
			L240.475,87.417z M251.262,47.706c-1.234-2.113-3.105-2.95-5.808-2.473c-2.703,0.477-4.176,1.902-4.613,4.311l3.302,18.727
			c1.234,2.113,3.105,2.949,5.809,2.473c2.704-0.477,4.175-1.902,4.612-4.311L251.262,47.706z"/>
		<path fill="#006838" d="M269.965,82.217l-0.867-4.916l24.085-4.247l0.867,4.916L269.965,82.217z"/>
		<path fill="#006838" d="M299.633,67.103l-6.249-35.439l6.39-1.127l4.706,26.691l3.584,2.509l13.271-2.34l1.006,5.702
			L299.633,67.103z M299.455,77.017l-0.867-4.916l24.085-4.246l0.867,4.916L299.455,77.017z"/>
		<path fill="#006838" d="M329.222,61.886l-6.249-35.439l21.579-3.805l0.988,5.604l-12.928,2.279l-2.186,3.122l0.667,3.785
			l2.775,1.942l11.158-1.968l0.988,5.604l-11.158,1.968l-1.943,2.775l0.85,4.816l3.122,2.187l13.468-2.374l0.988,5.603
			L329.222,61.886z M328.945,71.817l-0.867-4.916l24.085-4.247l0.867,4.916L328.945,71.817z"/>
		<path fill="#006838" d="M375.03,53.808l-0.937-3.586l-1.832-4.643l-9.929,1.751l-0.134,4.989l0.347,3.689l-6.98,1.231l0.93-32.956
			l-0.346-3.688l12.78-2.253l0.937,3.584l12.145,30.65L375.03,53.808z M358.436,66.617l-0.867-4.916l24.084-4.247l0.867,4.916
			L358.436,66.617z M364.478,25.868l-1.572,0.277l-0.337,13.034l2.711,2.156l2.163-0.382l1.811-2.953L364.478,25.868z"/>
	</g>
	<g>
		<path fill="#006838" d="M399.607,26.465l-0.9-5.112c-1.174-1.769-3.094-2.598-5.306-2.207c-2.703,0.477-4.421,1.946-4.907,4.363
			l3.233,18.334c0.931,2.115,2.387,3.48,5.188,2.986c1.377-0.242,2.744-1.396,4.445-3.824l1.214-1.734l-1.144-6.487l6.391-1.127
			l2.799,15.876l-6.391,1.127l-0.069-0.394l-2.312-1.619l-0.393,0.069c-1.174,2.539-2.551,3.643-5.009,4.076
			c-7.815,1.378-11.864-6.93-13.58-16.662c-1.656-9.387-1.53-18.736,9.529-20.687c7.962-1.404,13.125,4.021,14.485,11.739
			L399.607,26.465z M387.931,61.416l-0.866-4.916l24.085-4.247l0.866,4.916L387.931,61.416z"/>
	</g>
	<g>
		<path fill="#006838" d="M427.905,45.245c-7.914,1.395-12.453-3.076-13.778-10.596l-4.152-23.545l6.193-1.092l4.282,24.281
			c0.416,2.359,1.185,3.846,2.292,4.665l7.864-1.387c0.761-1.148,0.975-2.808,0.559-5.167l-4.282-24.281l6.194-1.093l4.151,23.545
			C438.555,38.096,435.818,43.85,427.905,45.245z M417.422,56.216l-0.866-4.916l24.085-4.246l0.866,4.916L417.422,56.216z"/>
		<path fill="#006838" d="M447.188,41.085l-6.249-35.439l21.579-3.806l0.988,5.604l-12.928,2.28l-2.187,3.121l0.667,3.785
			l2.775,1.943l11.158-1.968l0.988,5.604l-11.158,1.967l-1.943,2.775l0.85,4.816l3.122,2.188l13.468-2.375l0.988,5.604
			L447.188,41.085z M446.912,51.017l-0.866-4.916l24.085-4.248l0.866,4.916L446.912,51.017z"/>
		<path fill="#006838" d="M476.402,45.815l-0.866-4.916l24.085-4.246l0.866,4.916L476.402,45.815z"/>
		<path fill="#006838" d="M505.893,40.616l-0.866-4.916l24.085-4.247l0.866,4.916L505.893,40.616z"/>
		<path fill="#006838" d="M535.383,35.416l-0.866-4.916l24.085-4.247l0.866,4.916L535.383,35.416z"/>
		<path fill="#006838" d="M564.873,30.216l-0.866-4.916l24.085-4.246l0.866,4.916L564.873,30.216z"/>
		<path fill="#006838" d="M594.363,25.017l-0.866-4.916l24.085-4.247l0.866,4.916L594.363,25.017z"/>
		<path fill="#006838" d="M623.854,19.816l-0.866-4.916l24.085-4.247l0.866,4.916L623.854,19.816z"/>
		<path fill="#006838" d="M653.344,14.616L652.477,9.7l24.085-4.247l0.867,4.916L653.344,14.616z"/>
	</g>
	<g>
		<path fill="#006838" d="M14.948,187.999l-0.867-4.916l24.085-4.247l0.867,4.916L14.948,187.999z"/>
		<path fill="#006838" d="M44.438,182.799l-0.867-4.916l24.085-4.247l0.867,4.916L44.438,182.799z"/>
		<path fill="#006838" d="M73.928,177.599l-0.867-4.916l24.085-4.246l0.867,4.916L73.928,177.599z"/>
		<path fill="#006838" d="M103.418,172.399l-0.867-4.916l24.085-4.247l0.867,4.916L103.418,172.399z"/>
		<path fill="#006838" d="M132.909,167.199l-0.867-4.916l24.085-4.247l0.867,4.916L132.909,167.199z"/>
		<path fill="#006838" d="M162.399,161.999l-0.867-4.916l24.085-4.247l0.867,4.916L162.399,161.999z"/>
		<path fill="#006838" d="M191.889,156.799l-0.867-4.916l24.085-4.246l0.867,4.916L191.889,156.799z"/>
		<path fill="#006838" d="M221.38,151.6l-0.867-4.916l24.085-4.247l0.867,4.916L221.38,151.6z"/>
		<path fill="#006838" d="M250.87,146.399l-0.867-4.916l24.085-4.247l0.867,4.916L250.87,146.399z"/>
		<path fill="#006838" d="M291.235,130.16c-11.108,1.958-14.14-7.188-15.743-16.28c-1.604-9.095-1.874-18.676,9.234-20.635
			c8.455-1.49,12.539,3.566,14.817,11.021l-7.17,1.872l-0.832-4.719c-1.235-2.113-3.105-2.95-5.809-2.474
			c-2.703,0.478-4.175,1.902-4.612,4.311l3.302,18.727c1.234,2.114,3.105,2.951,5.808,2.475c2.704-0.478,4.176-1.902,4.613-4.312
			l-0.832-4.718l7.379-0.694C301.799,122.519,299.69,128.669,291.235,130.16z M280.36,141.199l-0.867-4.916l24.085-4.247
			l0.867,4.916L280.36,141.199z"/>
		<path fill="#006838" d="M324.922,123.459l-2.306-13.074l-2.775-1.943l-4.719,0.832l-1.943,2.775l2.306,13.074l-6.193,1.092
			l-6.249-35.439l6.193-1.092l2.141,12.141l2.775,1.943l4.719-0.832l1.944-2.775l-2.141-12.141l6.193-1.093l6.249,35.44
			L324.922,123.459z M309.85,135.999l-0.867-4.916l24.085-4.247l0.867,4.916L309.85,135.999z"/>
		<path fill="#006838" d="M355.936,117.99l-0.937-3.585l-1.832-4.644l-9.929,1.75l-0.134,4.991l0.346,3.688l-6.979,1.23
			l0.929-32.954l-0.346-3.689l12.78-2.254l0.937,3.586l12.145,30.649L355.936,117.99z M339.341,130.799l-0.867-4.916l24.085-4.246
			l0.866,4.916L339.341,130.799z M345.383,90.051l-1.573,0.277l-0.337,13.034l2.711,2.156l2.163-0.381l1.811-2.955L345.383,90.051z"
			/>
		<path fill="#006838" d="M384.59,112.938l-3.432-19.464l-1.278,0.226l-0.442,2.661l0.238,3.658l-5.701,1.005l-1.025-3.519
			l-1.327-2.35l-1.278,0.225l3.433,19.464l-6.193,1.093l-6.249-35.439l7.324-1.291l1.133,3.551l4.724,8.391l1.376-0.243l1.568-9.5
			l-0.15-3.724l7.226-1.274l6.249,35.439L384.59,112.938z M368.831,125.6l-0.867-4.916l24.085-4.247l0.867,4.916L368.831,125.6z"/>
		<path fill="#006838" d="M408.132,94.697l-3.539,0.624l-1.943,2.775l1.993,11.305l-6.39,1.127l-6.249-35.439l12.289-2.167
			c6.193-1.092,11.998,1.939,13.229,8.919C418.753,88.82,414.325,93.605,408.132,94.697z M398.321,120.399l-0.867-4.916
			l24.085-4.247l0.867,4.916L398.321,120.399z M404.413,78.78l-2.654,0.468l-2.187,3.122l0.944,5.357l2.776,1.943l2.949-0.52
			c3.489-0.615,4.979-2.803,4.398-6.098C410.06,79.761,407.903,78.165,404.413,78.78z"/>
	</g>
	<g>
		<path fill="#006838" d="M426.131,105.613l-0.937-5.31l6.488-1.144l1.943-2.775l-3.545-20.104l-2.775-1.943l-6.488,1.144
			l-0.936-5.309l24.085-4.246l0.936,5.309l-6.488,1.144l-1.942,2.775l3.544,20.104l2.775,1.943l6.488-1.144l0.936,5.309
			L426.131,105.613z M427.82,115.197l-0.866-4.916l24.085-4.246l0.866,4.916L427.82,115.197z"/>
		<path fill="#006838" d="M467.794,99.027c-11.109,1.959-14.141-7.187-15.744-16.28s-1.874-18.675,9.235-20.634
			c11.107-1.958,14.131,7.137,15.734,16.231C478.623,87.438,478.902,97.069,467.794,99.027z M457.311,109.998l-0.866-4.916
			l24.085-4.247l0.867,4.916L457.311,109.998z M468.098,70.288c-1.233-2.113-3.104-2.95-5.808-2.474
			c-2.704,0.478-4.176,1.902-4.612,4.311l3.302,18.727c1.234,2.114,3.105,2.95,5.809,2.474c2.704-0.477,4.175-1.902,4.612-4.311
			L468.098,70.288z"/>
	</g>
	<g>
		<path fill="#006838" d="M501.776,92.273l-1.204-3.387l-10.297-13.845l-1.131,0.199l3.293,18.679l-6.193,1.092l-6.249-35.439
			l6.292-1.109l1.206,3.387l10.296,13.845l1.131-0.199l-3.294-18.679l6.193-1.092l6.249,35.439L501.776,92.273z M486.805,104.796
			l-0.867-4.914l24.085-4.248l0.866,4.916L486.805,104.796z"/>
		<path fill="#006838" d="M526.925,88.601c-8.258,1.455-13.309-2.47-15.21-10.953l7.373-1.301l0.806,4.572
			c1.09,1.582,3.125,2.49,6.025,1.979c4.03-0.71,5.017-3.164,4.592-5.572c-1.309-7.424-17.694-1.189-19.896-13.674
			c-1.188-6.734,3.066-10.779,9.604-11.932c6.832-1.205,12.088,1.872,13.88,9.16l-7.373,1.299l-0.649-3.688
			c-1.348-1.027-2.738-1.441-4.803-1.078c-2.851,0.503-4.378,2.191-3.971,4.5c0.962,5.457,17.521,0.205,19.879,13.576
			C538.43,82.567,533.609,87.421,526.925,88.601z M516.295,99.597l-0.867-4.916l24.085-4.246l0.866,4.915L516.295,99.597z"/>
		<path fill="#006838" d="M560.855,81.856l-2.305-13.074l-2.776-1.943l-4.719,0.832l-1.942,2.775l2.305,13.074l-6.193,1.092
			l-6.249-35.439l6.193-1.092l2.142,12.141l2.774,1.943l4.719-0.832l1.944-2.775l-2.142-12.141l6.193-1.093l6.249,35.439
			L560.855,81.856z M545.784,94.396l-0.866-4.915l24.084-4.247l0.867,4.915L545.784,94.396z"/>
	</g>
	<g>
		<path fill="#006838" d="M573.586,79.612l-0.937-5.309l6.488-1.145l1.943-2.775l-3.545-20.104l-2.775-1.943l-6.488,1.145
			l-0.936-5.309l24.085-4.247l0.936,5.309l-6.488,1.144l-1.942,2.775l3.544,20.104l2.775,1.943l6.488-1.144l0.936,5.309
			L573.586,79.612z M575.275,89.197l-0.866-4.916l24.085-4.247l0.866,4.916L575.275,89.197z"/>
	</g>
	<g>
		<path fill="#006838" d="M614.579,58.294l-3.539,0.624l-1.943,2.775l1.993,11.305l-6.391,1.127l-6.249-35.439l12.289-2.167
			c6.193-1.092,11.999,1.939,13.229,8.919S620.772,57.202,614.579,58.294z M604.768,83.996l-0.866-4.915l24.085-4.247l0.867,4.915
			L604.768,83.996z M610.859,42.377l-2.654,0.468l-2.186,3.123l0.944,5.357l2.775,1.943l2.949-0.521
			c3.49-0.615,4.979-2.804,4.398-6.097S614.35,41.762,610.859,42.377z"/>
		<path fill="#006838" d="M634.258,78.796l-0.866-4.915l24.085-4.247l0.867,4.915L634.258,78.796z"/>
		<path fill="#006838" d="M663.748,73.597l-0.867-4.916l24.086-4.246l0.866,4.914L663.748,73.597z"/>
		<path fill="#006838" d="M693.238,68.396l-0.867-4.914l24.086-4.247l0.867,4.915L693.238,68.396z"/>
	</g>
</g>
</svg>
