<?xml version="1.0" encoding="utf-8"?>
<!-- Generator: Adobe Illustrator 16.0.0, SVG Export Plug-In . SVG Version: 6.00 Build 0)  -->
<!DOCTYPE svg PUBLIC "-//W3C//DTD SVG 1.1//EN" "http://www.w3.org/Graphics/SVG/1.1/DTD/svg11.dtd">
<svg version="1.1" id="Layer_1" xmlns="http://www.w3.org/2000/svg" xmlns:xlink="http://www.w3.org/1999/xlink" x="0px" y="0px"
	 width="591.892px" height="188px" viewBox="0 0 591.892 188" enable-background="new 0 0 591.892 188" xml:space="preserve">
<g>
	<g>
		<path fill="#006838" d="M18.288,103.853l-0.936-5.309L23.84,97.4l1.943-2.775l-3.545-20.104l-2.775-1.943l-6.488,1.144
			l-0.936-5.309l24.085-4.246l0.936,5.309l-6.488,1.145l-1.943,2.775l3.545,20.104l2.775,1.943l6.488-1.145l0.936,5.309
			L18.288,103.853z M19.978,113.438l-0.867-4.916l24.085-4.247l0.867,4.916L19.978,113.438z"/>
		<path fill="#006838" d="M64.441,95.715l-1.205-3.386L52.939,78.483l-1.13,0.199l3.293,18.68l-6.193,1.092L42.66,63.015
			l6.292-1.109l1.205,3.386l10.297,13.845l1.13-0.199l-3.293-18.678l6.193-1.093l6.249,35.439L64.441,95.715z M49.468,108.238
			l-0.867-4.916l24.085-4.247l0.867,4.916L49.468,108.238z"/>
		<path fill="#006838" d="M88.623,91.451l-10.224,1.803L72.15,57.814l10.224-1.803c11.896-2.098,14.947,5.727,16.646,15.361
			C100.719,81.007,100.519,89.354,88.623,91.451z M78.958,103.038l-0.867-4.916l24.085-4.247l0.867,4.916L78.958,103.038z
			 M90.081,63.219c-1.509-1.661-3.113-2.138-5.817-1.661L82.2,61.922l-2.186,3.122l3.302,18.727l3.123,2.187l2.064-0.364
			c2.704-0.477,4.048-1.473,4.898-3.549L90.081,63.219z"/>
	</g>
	<g>
		<path fill="#006838" d="M106.762,88.253l-0.936-5.309l6.488-1.145l1.943-2.775l-3.545-20.104l-2.775-1.943l-6.488,1.145
			l-0.936-5.309l24.085-4.247l0.936,5.309l-6.488,1.144l-1.943,2.775l3.545,20.104l2.775,1.943l6.488-1.144l0.936,5.309
			L106.762,88.253z M108.452,97.837l-0.867-4.916l24.085-4.246l0.867,4.916L108.452,97.837z"/>
	</g>
	<g>
		<path fill="#006838" d="M149.62,57.687l-0.901-5.112c-1.173-1.769-3.093-2.597-5.305-2.206c-2.704,0.477-4.421,1.945-4.907,4.361
			l3.232,18.334c0.931,2.116,2.388,3.482,5.189,2.988c1.376-0.242,2.744-1.396,4.445-3.826l1.214-1.734l-1.144-6.486l6.391-1.127
			l2.799,15.875l-6.391,1.127l-0.069-0.393l-2.312-1.619l-0.393,0.068c-1.174,2.539-2.551,3.645-5.009,4.078
			c-7.815,1.377-11.865-6.931-13.581-16.663c-1.655-9.388-1.53-18.735,9.53-20.687c7.963-1.403,13.126,4.021,14.486,11.738
			L149.62,57.687z M137.943,92.638l-0.867-4.916l24.085-4.247l0.867,4.916L137.943,92.638z"/>
		<path fill="#006838" d="M177.917,76.468c-11.109,1.959-14.141-7.188-15.744-16.281s-1.874-18.676,9.235-20.635
			c11.108-1.958,14.131,7.138,15.735,16.231S189.025,74.509,177.917,76.468z M167.434,87.438l-0.867-4.916l24.085-4.247l0.867,4.916
			L167.434,87.438z M178.221,47.728c-1.234-2.113-3.105-2.949-5.808-2.473c-2.704,0.477-4.176,1.902-4.613,4.311l3.302,18.727
			c1.235,2.113,3.105,2.949,5.809,2.473c2.703-0.477,4.175-1.902,4.612-4.311L178.221,47.728z"/>
		<path fill="#006838" d="M226.592,67.123l-6.249-35.439l6.39-1.126l4.706,26.689l3.585,2.51l13.271-2.34l1.005,5.702
			L226.592,67.123z M226.415,77.038l-0.867-4.916l24.085-4.248l0.867,4.916L226.415,77.038z"/>
		<path fill="#006838" d="M256.181,61.905l-6.249-35.439l21.579-3.805l0.988,5.604l-12.928,2.279l-2.187,3.124l0.667,3.784
			l2.775,1.942l11.158-1.968l0.988,5.604l-11.158,1.968l-1.943,2.775l0.85,4.817l3.122,2.187l13.469-2.375l0.988,5.603
			L256.181,61.905z M255.905,71.837l-0.867-4.916l24.085-4.246l0.867,4.916L255.905,71.837z"/>
		<path fill="#006838" d="M301.99,53.828l-0.936-3.585l-1.833-4.644l-9.929,1.751l-0.134,4.99l0.347,3.689l-6.98,1.23l0.93-32.955
			l-0.347-3.689l12.781-2.254l0.936,3.586l12.145,30.649L301.99,53.828z M285.396,66.638l-0.867-4.916l24.085-4.247l0.866,4.916
			L285.396,66.638z M291.438,25.89l-1.573,0.277L289.528,39.2l2.712,2.156l2.162-0.381l1.811-2.954L291.438,25.89z"/>
	</g>
	<g>
		<path fill="#006838" d="M326.567,26.485l-0.901-5.112c-1.174-1.769-3.094-2.597-5.306-2.206c-2.703,0.477-4.421,1.945-4.907,4.362
			l3.233,18.334c0.931,2.116,2.388,3.481,5.189,2.987c1.377-0.242,2.744-1.396,4.444-3.825l1.215-1.734l-1.145-6.487l6.391-1.127
			l2.8,15.876l-6.391,1.127l-0.069-0.394l-2.313-1.619l-0.393,0.069c-1.174,2.539-2.551,3.644-5.008,4.077
			c-7.815,1.378-11.865-6.93-13.581-16.662c-1.655-9.389-1.53-18.736,9.529-20.687c7.963-1.404,13.126,4.021,14.486,11.737
			L326.567,26.485z M314.891,61.437l-0.867-4.916l24.085-4.246l0.867,4.916L314.891,61.437z"/>
	</g>
	<g>
		<path fill="#006838" d="M354.864,45.267c-7.914,1.396-12.453-3.076-13.778-10.596l-4.151-23.545l6.193-1.093l4.281,24.281
			c0.416,2.359,1.185,3.847,2.292,4.665l7.864-1.387c0.761-1.148,0.975-2.809,0.559-5.168l-4.281-24.281l6.193-1.092l4.151,23.545
			C365.514,38.116,362.778,43.871,354.864,45.267z M344.382,56.236l-0.867-4.916l24.086-4.247l0.866,4.916L344.382,56.236z"/>
		<path fill="#006838" d="M374.148,41.104l-6.249-35.439l21.578-3.805l0.988,5.604l-12.928,2.279l-2.187,3.123l0.667,3.785
			l2.776,1.941l11.157-1.967l0.988,5.604l-11.157,1.968l-1.944,2.775l0.85,4.816l3.123,2.188l13.468-2.375l0.987,5.602
			L374.148,41.104z M373.872,51.036l-0.867-4.916l24.086-4.246l0.866,4.916L373.872,51.036z"/>
		<path fill="#006838" d="M491.834,30.236l-0.866-4.916l24.084-4.247l0.867,4.916L491.834,30.236z"/>
		<path fill="#006838" d="M521.324,25.036l-0.866-4.916l24.084-4.246l0.867,4.916L521.324,25.036z"/>
		<path fill="#006838" d="M550.815,19.837l-0.867-4.916l24.085-4.247l0.867,4.916L550.815,19.837z"/>
		<path fill="#006838" d="M580.306,14.637l-0.867-4.916l24.085-4.247l0.867,4.916L580.306,14.637z"/>
	</g>
	<g>
		<path fill="#006838" d="M218.196,130.18c-11.108,1.959-14.141-7.187-15.744-16.279c-1.604-9.094-1.874-18.676,9.235-20.634
			c8.454-1.491,12.539,3.566,14.816,11.02l-7.17,1.873l-0.832-4.719c-1.234-2.113-3.105-2.949-5.809-2.473
			c-2.704,0.477-4.175,1.902-4.612,4.31l3.302,18.728c1.234,2.113,3.105,2.95,5.809,2.474c2.703-0.478,4.175-1.902,4.612-4.311
			l-0.832-4.719l7.378-0.693C228.759,122.539,226.651,128.689,218.196,130.18z M207.321,141.22l-0.867-4.915l24.085-4.247
			l0.867,4.915L207.321,141.22z"/>
		<path fill="#006838" d="M251.883,123.48l-2.306-13.075l-2.776-1.943l-4.719,0.832l-1.943,2.775l2.306,13.075l-6.194,1.092
			l-6.249-35.44l6.194-1.092l2.141,12.141l2.775,1.943l4.719-0.832l1.944-2.775l-2.141-12.141l6.192-1.092l6.249,35.439
			L251.883,123.48z M236.811,136.02l-0.867-4.915l24.085-4.247l0.867,4.915L236.811,136.02z"/>
		<path fill="#006838" d="M282.896,118.012l-0.937-3.586l-1.832-4.645l-9.929,1.751l-0.134,4.991l0.346,3.689l-6.979,1.23
			l0.93-32.955l-0.347-3.69l12.78-2.253l0.936,3.586l12.145,30.65L282.896,118.012z M266.302,130.819l-0.867-4.915l24.084-4.246
			l0.867,4.914L266.302,130.819z M272.344,90.071l-1.572,0.277l-0.337,13.033l2.711,2.157l2.163-0.381l1.811-2.954L272.344,90.071z"
			/>
		<path fill="#006838" d="M311.552,112.959l-3.433-19.465l-1.278,0.226l-0.442,2.661l0.239,3.658l-5.701,1.006l-1.026-3.52
			l-1.327-2.351l-1.277,0.226l3.432,19.465l-6.193,1.093l-6.249-35.441l7.324-1.291l1.133,3.551l4.724,8.393l1.376-0.243
			l1.568-9.501l-0.15-3.725l7.226-1.273l6.249,35.44L311.552,112.959z M295.792,125.619l-0.867-4.914l24.085-4.247l0.867,4.915
			L295.792,125.619z"/>
		<path fill="#006838" d="M335.093,94.718l-3.539,0.624l-1.943,2.775l1.994,11.306l-6.391,1.127l-6.249-35.44l12.289-2.167
			c6.193-1.092,11.998,1.939,13.229,8.919C345.714,88.842,341.286,93.626,335.093,94.718z M325.282,120.42l-0.867-4.915
			l24.086-4.247l0.866,4.915L325.282,120.42z M331.374,78.801l-2.654,0.468l-2.186,3.122l0.944,5.358l2.775,1.942l2.949-0.52
			c3.49-0.616,4.979-2.804,4.398-6.098C337.021,79.781,334.864,78.185,331.374,78.801z"/>
	</g>
	<g>
		<path fill="#006838" d="M353.09,105.635l-0.936-5.31l6.488-1.145l1.942-2.774l-3.545-20.104l-2.774-1.942l-6.488,1.144
			l-0.937-5.309l24.085-4.247l0.937,5.31l-6.488,1.144l-1.943,2.774l3.545,20.104l2.775,1.942l6.488-1.144l0.936,5.31
			L353.09,105.635z M354.78,115.219l-0.867-4.916l24.085-4.246l0.867,4.915L354.78,115.219z"/>
		<path fill="#006838" d="M394.753,99.048c-11.108,1.959-14.141-7.188-15.744-16.279c-1.604-9.094-1.873-18.676,9.235-20.635
			s14.131,7.138,15.734,16.231C405.582,87.458,405.862,97.089,394.753,99.048z M384.271,110.019l-0.867-4.915l24.085-4.247
			l0.867,4.915L384.271,110.019z M395.058,70.308c-1.234-2.113-3.104-2.949-5.808-2.473c-2.704,0.477-4.176,1.902-4.613,4.311
			l3.302,18.728c1.235,2.113,3.105,2.95,5.81,2.473c2.703-0.477,4.175-1.901,4.611-4.31L395.058,70.308z"/>
	</g>
	<g>
		<path fill="#006838" d="M428.736,92.295l-1.205-3.387l-10.297-13.845l-1.13,0.199l3.293,18.679l-6.193,1.092l-6.249-35.44
			l6.292-1.109l1.205,3.387l10.297,13.845l1.131-0.199l-3.294-18.679l6.193-1.092l6.249,35.44L428.736,92.295z M413.764,104.817
			l-0.867-4.916l24.086-4.246l0.866,4.914L413.764,104.817z"/>
		<path fill="#006838" d="M453.884,88.62c-8.257,1.457-13.309-2.468-15.209-10.951l7.373-1.301l0.806,4.572
			c1.09,1.58,3.125,2.489,6.025,1.979c4.03-0.711,5.017-3.166,4.592-5.574c-1.309-7.422-17.694-1.188-19.896-13.673
			c-1.188-6.733,3.065-10.778,9.603-11.932c6.833-1.204,12.089,1.873,13.88,9.159l-7.372,1.301l-0.65-3.688
			c-1.347-1.029-2.737-1.443-4.802-1.079c-2.852,0.503-4.379,2.19-3.971,4.501c0.962,5.457,17.521,0.205,19.879,13.574
			C465.39,82.587,460.569,87.442,453.884,88.62z M443.254,99.616l-0.866-4.914l24.085-4.247l0.866,4.915L443.254,99.616z"/>
		<path fill="#006838" d="M487.816,81.878l-2.306-13.076l-2.776-1.943l-4.719,0.832l-1.942,2.775l2.306,13.076l-6.194,1.092
			l-6.249-35.441l6.194-1.092l2.141,12.143l2.774,1.941l4.719-0.832l1.944-2.773l-2.141-12.143l6.192-1.092l6.249,35.44
			L487.816,81.878z M472.744,94.417l-0.866-4.915l24.085-4.247l0.866,4.915L472.744,94.417z"/>
	</g>
	<g>
		<path fill="#006838" d="M500.546,79.634l-0.937-5.31l6.488-1.144l1.943-2.775l-3.545-20.104l-2.775-1.943l-6.488,1.145
			l-0.936-5.31l24.085-4.247l0.936,5.31l-6.488,1.144l-1.943,2.775l3.545,20.104l2.775,1.943l6.488-1.145l0.937,5.31L500.546,79.634
			z M502.235,89.218l-0.866-4.915l24.085-4.247l0.866,4.915L502.235,89.218z"/>
	</g>
	<g>
		<path fill="#006838" d="M541.539,58.314l-3.54,0.624l-1.942,2.775l1.993,11.306l-6.39,1.127l-6.249-35.44l12.288-2.167
			c6.193-1.092,11.998,1.939,13.229,8.919C552.159,52.438,547.732,57.223,541.539,58.314z M531.728,84.017l-0.866-4.915
			l24.085-4.247l0.866,4.915L531.728,84.017z M537.82,42.397l-2.655,0.468l-2.187,3.122l0.945,5.359l2.775,1.943l2.949-0.521
			c3.49-0.616,4.979-2.805,4.398-6.099C543.467,43.378,541.31,41.782,537.82,42.397z"/>
		<path fill="#006838" d="M590.709,73.616l-0.867-4.915l24.085-4.247l0.867,4.916L590.709,73.616z"/>
		<path fill="#006838" d="M620.199,68.417l-0.867-4.916l24.085-4.246l0.867,4.914L620.199,68.417z"/>
	</g>
</g>
<g>
	<g>
		<path fill="#152A16" d="M-68.513,129.018l-0.867-4.916l24.085-4.247l0.867,4.916L-68.513,129.018z"/>
		<path fill="#152A16" d="M-39.023,123.817l-0.867-4.916l24.085-4.247l0.867,4.916L-39.023,123.817z"/>
		<path fill="#152A16" d="M-9.533,118.617l-0.867-4.916l24.085-4.246l0.867,4.916L-9.533,118.617z"/>
		<path fill="#152A16" d="M18.267,103.833l-0.936-5.309l6.488-1.145l1.943-2.775l-3.545-20.104l-2.775-1.943l-6.488,1.145
			l-0.936-5.309l24.085-4.247l0.936,5.309l-6.488,1.144l-1.943,2.775l3.544,20.104l2.775,1.943l6.488-1.144l0.936,5.309
			L18.267,103.833z M19.957,113.418l-0.867-4.916l24.085-4.247l0.867,4.916L19.957,113.418z"/>
		<path fill="#152A16" d="M64.42,95.694l-1.205-3.387L52.918,78.463l-1.131,0.2l3.293,18.678l-6.193,1.092l-6.249-35.439
			l6.292-1.109l1.206,3.387l10.297,13.846l1.13-0.199l-3.293-18.68l6.193-1.092l6.249,35.439L64.42,95.694z M49.448,108.218
			l-0.867-4.916l24.085-4.247l0.867,4.916L49.448,108.218z"/>
		<path fill="#152A16" d="M88.602,91.431l-10.224,1.803l-6.249-35.439l10.224-1.803c11.895-2.098,14.947,5.727,16.646,15.361
			C100.697,80.985,100.497,89.333,88.602,91.431z M78.938,103.018l-0.867-4.916l24.085-4.247l0.867,4.916L78.938,103.018z
			 M90.06,63.198c-1.509-1.661-3.113-2.138-5.817-1.661l-2.064,0.364l-2.187,3.122l3.302,18.727l3.123,2.187l2.063-0.364
			c2.704-0.477,4.049-1.473,4.899-3.549L90.06,63.198z"/>
	</g>
	<g>
		<path fill="#152A16" d="M106.742,88.231l-0.937-5.309l6.488-1.144l1.943-2.775L110.693,58.9l-2.775-1.943l-6.488,1.144
			l-0.936-5.309l24.085-4.246l0.936,5.309l-6.488,1.144l-1.943,2.775l3.545,20.104l2.774,1.943l6.488-1.144l0.937,5.309
			L106.742,88.231z M108.432,97.817l-0.867-4.916l24.085-4.247l0.867,4.916L108.432,97.817z"/>
	</g>
	<g>
		<path fill="#152A16" d="M149.6,57.665l-0.901-5.111c-1.174-1.77-3.093-2.598-5.305-2.207c-2.703,0.477-4.421,1.946-4.908,4.363
			l3.233,18.334c0.931,2.115,2.388,3.48,5.189,2.986c1.377-0.242,2.744-1.396,4.445-3.824l1.214-1.734l-1.144-6.488l6.39-1.127
			l2.8,15.877l-6.391,1.127l-0.069-0.395l-2.312-1.619l-0.393,0.07c-1.175,2.539-2.551,3.643-5.009,4.075
			c-7.815,1.378-11.865-6.929-13.581-16.661c-1.655-9.388-1.53-18.736,9.529-20.688c7.963-1.403,13.126,4.021,14.487,11.739
			L149.6,57.665z M137.923,92.616l-0.867-4.916l24.085-4.246l0.867,4.916L137.923,92.616z"/>
		<path fill="#152A16" d="M177.896,76.446c-11.109,1.958-14.14-7.187-15.744-16.28s-1.875-18.677,9.234-20.636
			c11.108-1.959,14.132,7.139,15.735,16.232S189.004,74.487,177.896,76.446z M167.414,87.417l-0.867-4.916l24.085-4.247l0.867,4.916
			L167.414,87.417z M178.201,47.706c-1.234-2.113-3.105-2.95-5.808-2.473c-2.703,0.477-4.176,1.902-4.613,4.311l3.302,18.727
			c1.234,2.113,3.105,2.949,5.809,2.473c2.704-0.477,4.175-1.902,4.612-4.311L178.201,47.706z"/>
		<path fill="#152A16" d="M196.903,82.217l-0.867-4.916l24.085-4.247l0.867,4.916L196.903,82.217z"/>
		<path fill="#152A16" d="M226.571,67.103l-6.249-35.439l6.39-1.127l4.706,26.691l3.584,2.509l13.271-2.34l1.006,5.702
			L226.571,67.103z M226.394,77.017l-0.867-4.916l24.085-4.246l0.867,4.916L226.394,77.017z"/>
		<path fill="#152A16" d="M256.16,61.886l-6.249-35.439l21.579-3.805l0.988,5.604l-12.928,2.279l-2.186,3.122l0.667,3.785
			l2.775,1.942l11.158-1.968l0.988,5.604l-11.158,1.968l-1.943,2.775l0.85,4.816l3.122,2.187l13.468-2.374l0.988,5.603
			L256.16,61.886z M255.884,71.817l-0.867-4.916l24.085-4.247l0.867,4.916L255.884,71.817z"/>
		<path fill="#152A16" d="M301.969,53.808l-0.937-3.586l-1.832-4.643l-9.929,1.751l-0.134,4.989l0.347,3.689l-6.98,1.231
			l0.93-32.956l-0.346-3.688l12.78-2.253l0.937,3.584l12.145,30.65L301.969,53.808z M285.374,66.617l-0.867-4.916l24.084-4.247
			l0.867,4.916L285.374,66.617z M291.416,25.868l-1.572,0.277l-0.337,13.034l2.711,2.156l2.163-0.382l1.811-2.953L291.416,25.868z"
			/>
	</g>
	<g>
		<path fill="#152A16" d="M326.546,26.465l-0.9-5.112c-1.174-1.769-3.094-2.598-5.306-2.207c-2.703,0.477-4.421,1.946-4.907,4.363
			l3.233,18.334c0.931,2.115,2.387,3.48,5.188,2.986c1.377-0.242,2.744-1.396,4.445-3.824l1.214-1.734l-1.144-6.487l6.391-1.127
			l2.799,15.876l-6.391,1.127l-0.069-0.394l-2.312-1.619l-0.393,0.069c-1.174,2.539-2.551,3.643-5.009,4.076
			c-7.815,1.378-11.864-6.93-13.58-16.662c-1.656-9.387-1.53-18.736,9.529-20.687c7.962-1.404,13.125,4.021,14.485,11.739
			L326.546,26.465z M314.869,61.416l-0.866-4.916l24.085-4.247l0.866,4.916L314.869,61.416z"/>
	</g>
	<g>
		<path fill="#152A16" d="M354.844,45.245c-7.914,1.395-12.453-3.076-13.778-10.596l-4.152-23.545l6.193-1.092l4.282,24.281
			c0.416,2.359,1.185,3.846,2.292,4.665l7.864-1.387c0.761-1.148,0.975-2.808,0.559-5.167l-4.282-24.281l6.194-1.093l4.151,23.545
			C365.493,38.096,362.757,43.85,354.844,45.245z M344.36,56.216l-0.866-4.916l24.085-4.246l0.866,4.916L344.36,56.216z"/>
		<path fill="#152A16" d="M374.127,41.085l-6.249-35.439l21.579-3.806l0.988,5.604l-12.928,2.28l-2.187,3.121l0.667,3.785
			l2.775,1.943l11.158-1.968l0.988,5.604l-11.158,1.967l-1.943,2.775l0.85,4.816l3.122,2.188l13.468-2.375l0.988,5.604
			L374.127,41.085z M373.851,51.017l-0.866-4.916l24.085-4.248l0.866,4.916L373.851,51.017z"/>
		<path fill="#152A16" d="M403.341,45.815l-0.866-4.916l24.085-4.246l0.866,4.916L403.341,45.815z"/>
		<path fill="#152A16" d="M432.831,40.616l-0.866-4.916l24.085-4.247l0.866,4.916L432.831,40.616z"/>
		<path fill="#152A16" d="M462.321,35.416l-0.866-4.916l24.085-4.247l0.866,4.916L462.321,35.416z"/>
		<path fill="#152A16" d="M491.812,30.216l-0.866-4.916l24.085-4.246l0.866,4.916L491.812,30.216z"/>
		<path fill="#152A16" d="M521.302,25.017l-0.866-4.916l24.085-4.247l0.866,4.916L521.302,25.017z"/>
		<path fill="#152A16" d="M550.792,19.816l-0.866-4.916l24.085-4.247l0.866,4.916L550.792,19.816z"/>
		<path fill="#152A16" d="M580.282,14.616L579.415,9.7L603.5,5.453l0.867,4.916L580.282,14.616z"/>
	</g>
	<g>
		<path fill="#152A16" d="M-58.113,187.999l-0.867-4.916l24.085-4.247l0.867,4.916L-58.113,187.999z"/>
		<path fill="#152A16" d="M-28.623,182.799l-0.867-4.916l24.085-4.247l0.867,4.916L-28.623,182.799z"/>
		<path fill="#152A16" d="M0.867,177.599L0,172.683l24.085-4.246l0.867,4.916L0.867,177.599z"/>
		<path fill="#152A16" d="M30.357,172.399l-0.867-4.916l24.085-4.247l0.867,4.916L30.357,172.399z"/>
		<path fill="#152A16" d="M59.848,167.199l-0.867-4.916l24.085-4.247l0.867,4.916L59.848,167.199z"/>
		<path fill="#152A16" d="M89.337,161.999l-0.867-4.916l24.085-4.247l0.867,4.916L89.337,161.999z"/>
		<path fill="#152A16" d="M118.828,156.799l-0.867-4.916l24.085-4.246l0.867,4.916L118.828,156.799z"/>
		<path fill="#152A16" d="M148.318,151.6l-0.867-4.916l24.085-4.247l0.867,4.916L148.318,151.6z"/>
		<path fill="#152A16" d="M177.809,146.399l-0.867-4.916l24.085-4.247l0.867,4.916L177.809,146.399z"/>
		<path fill="#152A16" d="M218.174,130.16c-11.108,1.958-14.14-7.188-15.743-16.28c-1.604-9.095-1.874-18.676,9.234-20.635
			c8.455-1.49,12.539,3.566,14.817,11.021l-7.17,1.872l-0.832-4.719c-1.235-2.113-3.105-2.95-5.809-2.474
			c-2.703,0.478-4.175,1.902-4.612,4.311l3.302,18.727c1.234,2.114,3.105,2.951,5.808,2.475c2.704-0.478,4.176-1.902,4.613-4.312
			l-0.832-4.718l7.379-0.694C228.737,122.519,226.629,128.669,218.174,130.16z M207.298,141.199l-0.867-4.916l24.085-4.247
			l0.867,4.916L207.298,141.199z"/>
		<path fill="#152A16" d="M251.86,123.459l-2.306-13.074l-2.775-1.943l-4.719,0.832l-1.943,2.775l2.306,13.074l-6.193,1.092
			l-6.249-35.439l6.193-1.092l2.141,12.141l2.775,1.943l4.719-0.832l1.944-2.775l-2.141-12.141l6.193-1.093l6.249,35.44
			L251.86,123.459z M236.789,135.999l-0.867-4.916l24.085-4.247l0.867,4.916L236.789,135.999z"/>
		<path fill="#152A16" d="M282.874,117.99l-0.937-3.585l-1.832-4.644l-9.929,1.75l-0.134,4.991l0.346,3.688l-6.979,1.23
			l0.929-32.954l-0.346-3.689l12.78-2.254l0.937,3.586l12.145,30.649L282.874,117.99z M266.279,130.799l-0.867-4.916l24.085-4.246
			l0.866,4.916L266.279,130.799z M272.322,90.051l-1.573,0.277l-0.337,13.034l2.711,2.156l2.163-0.381l1.811-2.955L272.322,90.051z"
			/>
		<path fill="#152A16" d="M311.528,112.938l-3.432-19.464l-1.278,0.226l-0.442,2.661l0.238,3.658l-5.701,1.005l-1.025-3.519
			l-1.327-2.35l-1.278,0.225l3.433,19.464l-6.193,1.093l-6.249-35.439l7.324-1.291l1.133,3.551l4.724,8.391l1.376-0.243l1.568-9.5
			l-0.15-3.724l7.226-1.274l6.249,35.439L311.528,112.938z M295.77,125.6l-0.867-4.916l24.085-4.247l0.867,4.916L295.77,125.6z"/>
		<path fill="#152A16" d="M335.07,94.697l-3.539,0.624l-1.943,2.775l1.993,11.305l-6.39,1.127l-6.249-35.439l12.289-2.167
			c6.193-1.092,11.998,1.939,13.229,8.919C345.691,88.82,341.264,93.605,335.07,94.697z M325.26,120.399l-0.867-4.916l24.085-4.247
			l0.867,4.916L325.26,120.399z M331.352,78.78l-2.654,0.468l-2.187,3.122l0.944,5.357l2.776,1.943l2.949-0.52
			c3.489-0.615,4.979-2.803,4.398-6.098C336.998,79.761,334.842,78.165,331.352,78.78z"/>
	</g>
	<g>
		<path fill="#152A16" d="M353.069,105.613l-0.937-5.31l6.488-1.144l1.943-2.775l-3.545-20.104l-2.775-1.943l-6.488,1.144
			l-0.936-5.309l24.085-4.246l0.936,5.309l-6.488,1.144l-1.942,2.775l3.544,20.104l2.775,1.943l6.488-1.144l0.936,5.309
			L353.069,105.613z M354.759,115.197l-0.866-4.916l24.085-4.246l0.866,4.916L354.759,115.197z"/>
		<path fill="#152A16" d="M394.732,99.027c-11.109,1.959-14.141-7.187-15.744-16.28s-1.874-18.675,9.235-20.634
			c11.107-1.958,14.131,7.137,15.734,16.231C405.562,87.438,405.841,97.069,394.732,99.027z M384.249,109.998l-0.866-4.916
			l24.085-4.247l0.867,4.916L384.249,109.998z M395.036,70.288c-1.233-2.113-3.104-2.95-5.808-2.474
			c-2.704,0.478-4.176,1.902-4.612,4.311l3.302,18.727c1.234,2.114,3.105,2.95,5.809,2.474c2.704-0.477,4.175-1.902,4.612-4.311
			L395.036,70.288z"/>
	</g>
	<g>
		<path fill="#152A16" d="M428.715,92.273l-1.204-3.387l-10.297-13.845l-1.131,0.199l3.293,18.679l-6.193,1.092l-6.249-35.439
			l6.292-1.109l1.206,3.387l10.296,13.845l1.131-0.199l-3.294-18.679l6.193-1.092l6.249,35.439L428.715,92.273z M413.743,104.796
			l-0.867-4.914l24.085-4.248l0.866,4.916L413.743,104.796z"/>
		<path fill="#152A16" d="M453.863,88.601c-8.258,1.455-13.309-2.47-15.21-10.953l7.373-1.301l0.806,4.572
			c1.09,1.582,3.125,2.49,6.025,1.979c4.03-0.71,5.017-3.164,4.592-5.572c-1.309-7.424-17.694-1.189-19.896-13.674
			c-1.188-6.734,3.066-10.779,9.604-11.932c6.832-1.205,12.088,1.872,13.88,9.16l-7.373,1.299l-0.649-3.688
			c-1.348-1.027-2.738-1.441-4.803-1.078c-2.851,0.503-4.378,2.191-3.971,4.5c0.962,5.457,17.521,0.205,19.879,13.576
			C465.368,82.567,460.548,87.421,453.863,88.601z M443.233,99.597l-0.867-4.916l24.085-4.246l0.866,4.915L443.233,99.597z"/>
		<path fill="#152A16" d="M487.794,81.856l-2.305-13.074l-2.776-1.943l-4.719,0.832l-1.942,2.775l2.305,13.074l-6.193,1.092
			l-6.249-35.439l6.193-1.092l2.142,12.141l2.774,1.943l4.719-0.832l1.944-2.775l-2.142-12.141l6.193-1.093l6.249,35.439
			L487.794,81.856z M472.723,94.396l-0.866-4.915l24.084-4.247l0.867,4.915L472.723,94.396z"/>
	</g>
	<g>
		<path fill="#152A16" d="M500.524,79.612l-0.937-5.309l6.488-1.145l1.943-2.775l-3.545-20.104l-2.775-1.943l-6.488,1.145
			l-0.936-5.309l24.085-4.247l0.936,5.309l-6.488,1.144l-1.942,2.775l3.544,20.104l2.775,1.943l6.488-1.144l0.936,5.309
			L500.524,79.612z M502.214,89.197l-0.866-4.916l24.085-4.247l0.866,4.916L502.214,89.197z"/>
	</g>
	<g>
		<path fill="#152A16" d="M541.518,58.294l-3.539,0.624l-1.943,2.775l1.993,11.305l-6.391,1.127l-6.249-35.439l12.289-2.167
			c6.193-1.092,11.999,1.939,13.229,8.919S547.711,57.202,541.518,58.294z M531.706,83.996l-0.866-4.915l24.085-4.247l0.867,4.915
			L531.706,83.996z M537.798,42.377l-2.654,0.468l-2.186,3.123l0.944,5.357l2.775,1.943l2.949-0.521
			c3.49-0.615,4.979-2.804,4.398-6.097S541.288,41.762,537.798,42.377z"/>
		<path fill="#152A16" d="M561.196,78.796l-0.866-4.915l24.085-4.247l0.867,4.915L561.196,78.796z"/>
		<path fill="#152A16" d="M590.687,73.597l-0.867-4.916l24.086-4.246l0.866,4.914L590.687,73.597z"/>
		<path fill="#152A16" d="M620.177,68.396l-0.867-4.914l24.086-4.247l0.867,4.915L620.177,68.396z"/>
	</g>
</g>
<g>
</g>
<g>
</g>
<g>
</g>
<g>
</g>
<g>
</g>
<g>
</g>
</svg>
