<?xml version="1.0" encoding="utf-8"?>
<!-- Generator: Adobe Illustrator 16.0.0, SVG Export Plug-In . SVG Version: 6.00 Build 0)  -->
<!DOCTYPE svg PUBLIC "-//W3C//DTD SVG 1.1//EN" "http://www.w3.org/Graphics/SVG/1.1/DTD/svg11.dtd">
<svg version="1.1" id="Layer_1" xmlns="http://www.w3.org/2000/svg" xmlns:xlink="http://www.w3.org/1999/xlink" x="0px" y="0px"
	 width="589.815px" height="188px" viewBox="0 0 589.815 188" enable-background="new 0 0 589.815 188" xml:space="preserve">
<g>
	<g>
		<path fill="#EF4423" d="M-70.589,129.018l-0.867-4.916l24.085-4.247l0.867,4.916L-70.589,129.018z"/>
		<path fill="#EF4423" d="M-41.099,123.817l-0.867-4.916l24.085-4.247l0.867,4.916L-41.099,123.817z"/>
		<path fill="#EF4423" d="M-11.609,118.617l-0.867-4.916l24.085-4.246l0.867,4.916L-11.609,118.617z"/>
		<path fill="#EF4423" d="M16.19,103.833l-0.936-5.309l6.488-1.144l1.943-2.775l-3.545-20.104l-2.775-1.943l-6.488,1.144
			l-0.936-5.309l24.085-4.247l0.936,5.309l-6.488,1.144l-1.943,2.775l3.544,20.104l2.775,1.944l6.488-1.144l0.936,5.309
			L16.19,103.833z M17.881,113.418l-0.867-4.916l24.085-4.247l0.867,4.916L17.881,113.418z"/>
		<path fill="#EF4423" d="M62.344,95.694l-1.205-3.386L50.842,78.463l-1.131,0.2l3.293,18.679l-6.193,1.092l-6.249-35.439
			l6.292-1.109l1.206,3.386l10.297,13.845l1.13-0.199l-3.293-18.679l6.193-1.092l6.249,35.439L62.344,95.694z M47.372,108.218
			l-0.867-4.916l24.085-4.247l0.867,4.916L47.372,108.218z"/>
		<path fill="#EF4423" d="M86.525,91.431l-10.224,1.803l-6.249-35.439l10.224-1.803c11.895-2.098,14.947,5.727,16.646,15.361
			C98.621,80.985,98.421,89.333,86.525,91.431z M76.861,103.018l-0.867-4.916l24.085-4.247l0.867,4.916L76.861,103.018z
			 M87.983,63.198c-1.509-1.661-3.113-2.138-5.817-1.661l-2.064,0.364l-2.187,3.122l3.302,18.727l3.123,2.187l2.063-0.364
			c2.704-0.477,4.049-1.473,4.899-3.549L87.983,63.198z"/>
	</g>
	<g>
		<path fill="#EF4423" d="M104.666,88.232l-0.937-5.309l6.488-1.144l1.943-2.775L108.617,58.9l-2.775-1.943l-6.488,1.144
			l-0.936-5.309l24.085-4.247l0.936,5.309l-6.488,1.144l-1.943,2.775l3.545,20.104l2.774,1.943l6.488-1.144l0.937,5.309
			L104.666,88.232z M106.356,97.817l-0.867-4.916l24.085-4.247l0.867,4.916L106.356,97.817z"/>
	</g>
	<g>
		<path fill="#EF4423" d="M147.524,57.666l-0.901-5.112c-1.174-1.769-3.093-2.597-5.305-2.207c-2.703,0.477-4.421,1.947-4.908,4.363
			l3.233,18.334c0.931,2.116,2.388,3.481,5.189,2.987c1.377-0.243,2.744-1.396,4.445-3.825l1.214-1.734l-1.144-6.487l6.39-1.127
			l2.8,15.876l-6.391,1.127l-0.069-0.394l-2.312-1.619l-0.393,0.069c-1.175,2.539-2.551,3.643-5.009,4.076
			c-7.815,1.378-11.865-6.929-13.581-16.661c-1.655-9.388-1.53-18.737,9.529-20.687c7.963-1.404,13.126,4.021,14.487,11.739
			L147.524,57.666z M135.847,92.617l-0.867-4.916l24.085-4.247l0.867,4.916L135.847,92.617z"/>
		<path fill="#EF4423" d="M175.82,76.446c-11.109,1.958-14.14-7.186-15.744-16.28s-1.875-18.677,9.234-20.635
			c11.108-1.959,14.132,7.138,15.735,16.232S186.928,74.487,175.82,76.446z M165.337,87.417l-0.867-4.916l24.085-4.247l0.867,4.916
			L165.337,87.417z M176.125,47.707c-1.234-2.113-3.105-2.951-5.808-2.474c-2.703,0.477-4.176,1.903-4.613,4.311l3.302,18.727
			c1.234,2.114,3.105,2.95,5.809,2.473c2.704-0.477,4.175-1.902,4.612-4.311L176.125,47.707z"/>
		<path fill="#EF4423" d="M194.827,82.217l-0.867-4.916l24.085-4.247l0.867,4.916L194.827,82.217z"/>
		<path fill="#EF4423" d="M224.495,67.103l-6.249-35.439l6.39-1.126l4.706,26.69l3.584,2.509l13.271-2.34l1.006,5.702
			L224.495,67.103z M224.317,77.017l-0.867-4.916l24.085-4.247l0.867,4.916L224.317,77.017z"/>
		<path fill="#EF4423" d="M254.084,61.885l-6.249-35.439l21.579-3.805l0.988,5.604l-12.928,2.279l-2.186,3.123l0.667,3.785
			l2.775,1.942l11.158-1.968l0.988,5.604l-11.158,1.968l-1.943,2.775l0.85,4.816l3.122,2.187l13.468-2.375l0.988,5.603
			L254.084,61.885z M253.808,71.817l-0.867-4.916l24.085-4.247l0.867,4.916L253.808,71.817z"/>
		<path fill="#EF4423" d="M299.893,53.808l-0.937-3.586l-1.832-4.643l-9.929,1.751l-0.134,4.99l0.347,3.689l-6.98,1.231l0.93-32.956
			l-0.346-3.689l12.78-2.253l0.937,3.584l12.145,30.65L299.893,53.808z M283.298,66.617l-0.867-4.916l24.084-4.247l0.867,4.916
			L283.298,66.617z M289.34,25.869l-1.572,0.277l-0.337,13.034l2.711,2.156l2.163-0.382l1.811-2.953L289.34,25.869z"/>
	</g>
	<g>
		<path fill="#EF4423" d="M324.47,26.465l-0.9-5.112c-1.174-1.769-3.094-2.597-5.306-2.207c-2.703,0.477-4.421,1.946-4.907,4.363
			l3.233,18.334c0.931,2.116,2.387,3.481,5.188,2.987c1.377-0.243,2.744-1.396,4.445-3.825l1.214-1.734l-1.144-6.487l6.391-1.127
			l2.799,15.876l-6.391,1.127l-0.069-0.394l-2.312-1.619l-0.393,0.069c-1.174,2.539-2.551,3.643-5.009,4.076
			c-7.815,1.378-11.864-6.929-13.58-16.662c-1.656-9.388-1.53-18.737,9.529-20.687c7.962-1.404,13.125,4.021,14.485,11.739
			L324.47,26.465z M312.793,61.416l-0.866-4.916l24.085-4.247l0.866,4.916L312.793,61.416z"/>
	</g>
	<g>
		<path fill="#EF4423" d="M352.768,45.245c-7.914,1.395-12.453-3.076-13.778-10.595l-4.152-23.545l6.193-1.092l4.282,24.281
			c0.416,2.359,1.185,3.846,2.292,4.665l7.864-1.387c0.761-1.148,0.975-2.808,0.559-5.167l-4.282-24.281l6.194-1.092l4.151,23.545
			C363.417,38.096,360.681,43.85,352.768,45.245z M342.284,56.216l-0.866-4.916l24.085-4.247l0.866,4.916L342.284,56.216z"/>
		<path fill="#EF4423" d="M372.051,41.084l-6.249-35.439l21.579-3.805l0.988,5.604l-12.928,2.28l-2.187,3.122l0.667,3.785
			l2.775,1.942l11.158-1.967l0.988,5.604l-11.158,1.967l-1.943,2.775l0.85,4.816l3.122,2.188l13.468-2.375l0.988,5.603
			L372.051,41.084z M371.774,51.016l-0.866-4.916l24.085-4.247l0.866,4.916L371.774,51.016z"/>
		<path fill="#EF4423" d="M401.265,45.816l-0.866-4.916l24.085-4.247l0.866,4.916L401.265,45.816z"/>
		<path fill="#EF4423" d="M430.755,40.616l-0.866-4.916l24.085-4.247l0.866,4.916L430.755,40.616z"/>
		<path fill="#EF4423" d="M460.245,35.416l-0.866-4.916l24.085-4.247l0.866,4.916L460.245,35.416z"/>
		<path fill="#EF4423" d="M489.735,30.216l-0.866-4.916l24.085-4.247l0.866,4.916L489.735,30.216z"/>
		<path fill="#EF4423" d="M519.226,25.016l-0.866-4.916l24.085-4.247l0.866,4.916L519.226,25.016z"/>
		<path fill="#EF4423" d="M548.716,19.816L547.85,14.9l24.085-4.247l0.866,4.916L548.716,19.816z"/>
		<path fill="#EF4423" d="M578.206,14.616L577.339,9.7l24.085-4.247l0.867,4.916L578.206,14.616z"/>
	</g>
	<g>
		<path fill="#EF4423" d="M-60.189,187.999l-0.867-4.916l24.085-4.247l0.867,4.916L-60.189,187.999z"/>
		<path fill="#EF4423" d="M-30.699,182.799l-0.867-4.916l24.085-4.247l0.867,4.916L-30.699,182.799z"/>
		<path fill="#EF4423" d="M-1.209,177.599l-0.867-4.916l24.085-4.246l0.867,4.916L-1.209,177.599z"/>
		<path fill="#EF4423" d="M28.281,172.399l-0.867-4.916l24.085-4.247l0.867,4.916L28.281,172.399z"/>
		<path fill="#EF4423" d="M57.771,167.199l-0.867-4.916l24.085-4.247l0.867,4.916L57.771,167.199z"/>
		<path fill="#EF4423" d="M87.261,161.999l-0.867-4.916l24.085-4.247l0.867,4.916L87.261,161.999z"/>
		<path fill="#EF4423" d="M116.751,156.799l-0.867-4.916l24.085-4.246l0.867,4.916L116.751,156.799z"/>
		<path fill="#EF4423" d="M146.242,151.6l-0.867-4.916l24.085-4.247l0.867,4.916L146.242,151.6z"/>
		<path fill="#EF4423" d="M175.732,146.399l-0.867-4.916l24.085-4.247l0.867,4.916L175.732,146.399z"/>
		<path fill="#EF4423" d="M216.098,130.16c-11.108,1.958-14.14-7.188-15.743-16.28c-1.604-9.095-1.874-18.675,9.234-20.634
			c8.455-1.491,12.539,3.566,14.817,11.021l-7.17,1.873l-0.832-4.719c-1.235-2.113-3.105-2.95-5.809-2.473
			c-2.703,0.477-4.175,1.902-4.612,4.311l3.302,18.726c1.234,2.114,3.105,2.951,5.808,2.475c2.704-0.478,4.176-1.902,4.613-4.312
			l-0.832-4.718l7.379-0.694C226.661,122.519,224.553,128.669,216.098,130.16z M205.222,141.199l-0.867-4.916l24.085-4.247
			l0.867,4.916L205.222,141.199z"/>
		<path fill="#EF4423" d="M249.784,123.459l-2.306-13.074l-2.775-1.943l-4.719,0.832l-1.943,2.775l2.306,13.074l-6.193,1.092
			l-6.249-35.439l6.193-1.092l2.141,12.141l2.775,1.943l4.719-0.832l1.944-2.775l-2.141-12.141l6.193-1.092l6.249,35.44
			L249.784,123.459z M234.712,135.999l-0.867-4.916l24.085-4.247l0.867,4.916L234.712,135.999z"/>
		<path fill="#EF4423" d="M280.798,117.99l-0.937-3.585l-1.832-4.644l-9.929,1.75l-0.134,4.991l0.346,3.688l-6.979,1.23
			l0.929-32.954l-0.346-3.689l12.78-2.254l0.937,3.586l12.145,30.649L280.798,117.99z M264.203,130.799l-0.867-4.916l24.085-4.246
			l0.866,4.916L264.203,130.799z M270.246,90.051l-1.573,0.277l-0.337,13.034l2.711,2.157l2.163-0.381l1.811-2.955L270.246,90.051z"
			/>
		<path fill="#EF4423" d="M309.452,112.938l-3.432-19.464l-1.278,0.226l-0.442,2.662l0.238,3.657l-5.701,1.005l-1.025-3.519
			l-1.327-2.35l-1.278,0.225l3.433,19.463l-6.193,1.093l-6.249-35.439l7.324-1.292l1.133,3.551l4.724,8.391l1.376-0.243l1.568-9.5
			l-0.15-3.724l7.226-1.274l6.249,35.439L309.452,112.938z M293.693,125.6l-0.867-4.916l24.085-4.247l0.867,4.916L293.693,125.6z"/>
		<path fill="#EF4423" d="M332.994,94.697l-3.539,0.624l-1.943,2.775l1.993,11.305l-6.39,1.127l-6.249-35.439l12.289-2.167
			c6.193-1.092,11.998,1.939,13.229,8.919C343.615,88.82,339.188,93.605,332.994,94.697z M323.184,120.399l-0.867-4.916
			l24.085-4.247l0.867,4.916L323.184,120.399z M329.275,78.78l-2.654,0.468l-2.187,3.123l0.944,5.357l2.776,1.943l2.949-0.52
			c3.489-0.615,4.979-2.803,4.398-6.097C334.922,79.761,332.766,78.165,329.275,78.78z"/>
	</g>
	<g>
		<path fill="#EF4423" d="M350.993,105.613l-0.937-5.309l6.488-1.144l1.943-2.775l-3.545-20.104l-2.775-1.943l-6.488,1.144
			l-0.936-5.309l24.085-4.247l0.936,5.309l-6.488,1.144l-1.942,2.775l3.544,20.104l2.775,1.943l6.488-1.144l0.936,5.309
			L350.993,105.613z M352.683,115.197l-0.866-4.916l24.085-4.246l0.866,4.916L352.683,115.197z"/>
		<path fill="#EF4423" d="M392.656,99.027c-11.109,1.959-14.141-7.187-15.744-16.28c-1.604-9.095-1.874-18.675,9.235-20.634
			c11.107-1.958,14.131,7.137,15.734,16.231C403.485,87.438,403.765,97.069,392.656,99.027z M382.173,109.998l-0.866-4.916
			l24.085-4.247l0.867,4.916L382.173,109.998z M392.96,70.288c-1.233-2.113-3.104-2.95-5.808-2.473
			c-2.704,0.477-4.176,1.902-4.612,4.311l3.302,18.727c1.234,2.114,3.105,2.951,5.809,2.474c2.704-0.477,4.175-1.902,4.612-4.311
			L392.96,70.288z"/>
	</g>
	<g>
		<path fill="#EF4423" d="M426.639,92.273l-1.204-3.387l-10.297-13.845l-1.131,0.199L417.3,93.92l-6.193,1.092l-6.249-35.439
			l6.292-1.109l1.206,3.387l10.296,13.845l1.131-0.199l-3.294-18.679l6.193-1.092l6.249,35.439L426.639,92.273z M411.667,104.796
			l-0.867-4.915l24.085-4.247l0.866,4.915L411.667,104.796z"/>
		<path fill="#EF4423" d="M451.787,88.6c-8.258,1.456-13.309-2.469-15.21-10.953l7.373-1.3l0.806,4.571
			c1.09,1.582,3.125,2.491,6.025,1.979c4.03-0.71,5.017-3.165,4.592-5.573c-1.309-7.423-17.694-1.189-19.896-13.673
			c-1.188-6.734,3.066-10.779,9.604-11.932c6.832-1.205,12.088,1.872,13.88,9.16l-7.373,1.3l-0.649-3.688
			c-1.348-1.028-2.738-1.442-4.803-1.079c-2.851,0.503-4.378,2.191-3.971,4.5c0.962,5.457,17.521,0.205,19.879,13.575
			C463.292,82.567,458.472,87.421,451.787,88.6z M441.157,99.596l-0.867-4.915l24.085-4.247l0.866,4.915L441.157,99.596z"/>
		<path fill="#EF4423" d="M485.718,81.856l-2.305-13.074l-2.776-1.943l-4.719,0.832l-1.942,2.775l2.305,13.074l-6.193,1.092
			l-6.249-35.439l6.193-1.092l2.142,12.141l2.774,1.943l4.719-0.832l1.944-2.775l-2.142-12.141l6.193-1.092l6.249,35.439
			L485.718,81.856z M470.646,94.396l-0.866-4.915l24.084-4.247l0.867,4.915L470.646,94.396z"/>
	</g>
	<g>
		<path fill="#EF4423" d="M498.448,79.612l-0.937-5.309L504,73.16l1.943-2.775l-3.545-20.104l-2.775-1.943l-6.488,1.144
			l-0.936-5.309l24.085-4.247l0.936,5.309l-6.488,1.144l-1.942,2.775l3.544,20.104l2.775,1.943l6.488-1.144l0.936,5.309
			L498.448,79.612z M500.138,89.197l-0.866-4.916l24.085-4.247l0.866,4.916L500.138,89.197z"/>
	</g>
	<g>
		<path fill="#EF4423" d="M539.441,58.294l-3.539,0.624l-1.943,2.775l1.993,11.305l-6.391,1.127l-6.249-35.439l12.289-2.167
			c6.193-1.092,11.999,1.939,13.229,8.919S545.635,57.202,539.441,58.294z M529.63,83.996l-0.866-4.915l24.085-4.247l0.867,4.915
			L529.63,83.996z M535.722,42.377l-2.654,0.468l-2.186,3.123l0.944,5.357l2.775,1.943l2.949-0.52
			c3.49-0.615,4.979-2.803,4.398-6.097C541.368,43.358,539.212,41.762,535.722,42.377z"/>
		<path fill="#EF4423" d="M559.12,78.796l-0.866-4.915l24.085-4.247l0.867,4.915L559.12,78.796z"/>
		<path fill="#EF4423" d="M588.61,73.596l-0.867-4.915l24.086-4.247l0.866,4.915L588.61,73.596z"/>
		<path fill="#EF4423" d="M618.101,68.396l-0.867-4.915l24.086-4.247l0.867,4.915L618.101,68.396z"/>
	</g>
</g>
<g>
	<g>
		<path fill="#EF4423" d="M-70.589,129.018l-0.867-4.916l24.085-4.247l0.867,4.916L-70.589,129.018z"/>
		<path fill="#EF4423" d="M-41.099,123.817l-0.867-4.916l24.085-4.247l0.867,4.916L-41.099,123.817z"/>
		<path fill="#EF4423" d="M-11.609,118.617l-0.867-4.916l24.085-4.246l0.867,4.916L-11.609,118.617z"/>
		<path fill="#EF4423" d="M16.19,103.833l-0.936-5.309l6.488-1.144l1.943-2.775l-3.545-20.104l-2.775-1.943l-6.488,1.144
			l-0.936-5.309l24.085-4.247l0.936,5.309l-6.488,1.144l-1.943,2.775l3.544,20.104l2.775,1.944l6.488-1.144l0.936,5.309
			L16.19,103.833z M17.881,113.418l-0.867-4.916l24.085-4.247l0.867,4.916L17.881,113.418z"/>
		<path fill="#EF4423" d="M62.344,95.694l-1.205-3.386L50.842,78.463l-1.131,0.2l3.293,18.679l-6.193,1.092l-6.249-35.439
			l6.292-1.109l1.206,3.386l10.297,13.845l1.13-0.199l-3.293-18.679l6.193-1.092l6.249,35.439L62.344,95.694z M47.372,108.218
			l-0.867-4.916l24.085-4.247l0.867,4.916L47.372,108.218z"/>
		<path fill="#EF4423" d="M86.525,91.431l-10.224,1.803l-6.249-35.439l10.224-1.803c11.895-2.098,14.947,5.727,16.646,15.361
			C98.621,80.985,98.421,89.333,86.525,91.431z M76.861,103.018l-0.867-4.916l24.085-4.247l0.867,4.916L76.861,103.018z
			 M87.983,63.198c-1.509-1.661-3.113-2.138-5.817-1.661l-2.064,0.364l-2.187,3.122l3.302,18.727l3.123,2.187l2.063-0.364
			c2.704-0.477,4.049-1.473,4.899-3.549L87.983,63.198z"/>
	</g>
	<g>
		<path fill="#EF4423" d="M104.666,88.232l-0.937-5.309l6.488-1.144l1.943-2.775L108.617,58.9l-2.775-1.943l-6.488,1.144
			l-0.936-5.309l24.085-4.247l0.936,5.309l-6.488,1.144l-1.943,2.775l3.545,20.104l2.774,1.943l6.488-1.144l0.937,5.309
			L104.666,88.232z M106.356,97.817l-0.867-4.916l24.085-4.247l0.867,4.916L106.356,97.817z"/>
	</g>
	<g>
		<path fill="#EF4423" d="M147.524,57.666l-0.901-5.112c-1.174-1.769-3.093-2.597-5.305-2.207c-2.703,0.477-4.421,1.947-4.908,4.363
			l3.233,18.334c0.931,2.116,2.388,3.481,5.189,2.987c1.377-0.243,2.744-1.396,4.445-3.825l1.214-1.734l-1.144-6.487l6.39-1.127
			l2.8,15.876l-6.391,1.127l-0.069-0.394l-2.312-1.619l-0.393,0.069c-1.175,2.539-2.551,3.643-5.009,4.076
			c-7.815,1.378-11.865-6.929-13.581-16.661c-1.655-9.388-1.53-18.737,9.529-20.687c7.963-1.404,13.126,4.021,14.487,11.739
			L147.524,57.666z M135.847,92.617l-0.867-4.916l24.085-4.247l0.867,4.916L135.847,92.617z"/>
		<path fill="#EF4423" d="M175.82,76.446c-11.109,1.958-14.14-7.186-15.744-16.28s-1.875-18.677,9.234-20.635
			c11.108-1.959,14.132,7.138,15.735,16.232S186.928,74.487,175.82,76.446z M165.337,87.417l-0.867-4.916l24.085-4.247l0.867,4.916
			L165.337,87.417z M176.125,47.707c-1.234-2.113-3.105-2.951-5.808-2.474c-2.703,0.477-4.176,1.903-4.613,4.311l3.302,18.727
			c1.234,2.114,3.105,2.95,5.809,2.473c2.704-0.477,4.175-1.902,4.612-4.311L176.125,47.707z"/>
		<path fill="#EF4423" d="M194.827,82.217l-0.867-4.916l24.085-4.247l0.867,4.916L194.827,82.217z"/>
		<path fill="#EF4423" d="M224.495,67.103l-6.249-35.439l6.39-1.126l4.706,26.69l3.584,2.509l13.271-2.34l1.006,5.702
			L224.495,67.103z M224.317,77.017l-0.867-4.916l24.085-4.247l0.867,4.916L224.317,77.017z"/>
		<path fill="#EF4423" d="M254.084,61.885l-6.249-35.439l21.579-3.805l0.988,5.604l-12.928,2.279l-2.186,3.123l0.667,3.785
			l2.775,1.942l11.158-1.968l0.988,5.604l-11.158,1.968l-1.943,2.775l0.85,4.816l3.122,2.187l13.468-2.375l0.988,5.603
			L254.084,61.885z M253.808,71.817l-0.867-4.916l24.085-4.247l0.867,4.916L253.808,71.817z"/>
		<path fill="#EF4423" d="M299.893,53.808l-0.937-3.586l-1.832-4.643l-9.929,1.751l-0.134,4.99l0.347,3.689l-6.98,1.231l0.93-32.956
			l-0.346-3.689l12.78-2.253l0.937,3.584l12.145,30.65L299.893,53.808z M283.298,66.617l-0.867-4.916l24.084-4.247l0.867,4.916
			L283.298,66.617z M289.34,25.869l-1.572,0.277l-0.337,13.034l2.711,2.156l2.163-0.382l1.811-2.953L289.34,25.869z"/>
	</g>
	<g>
		<path fill="#EF4423" d="M324.47,26.465l-0.9-5.112c-1.174-1.769-3.094-2.597-5.306-2.207c-2.703,0.477-4.421,1.946-4.907,4.363
			l3.233,18.334c0.931,2.116,2.387,3.481,5.188,2.987c1.377-0.243,2.744-1.396,4.445-3.825l1.214-1.734l-1.144-6.487l6.391-1.127
			l2.799,15.876l-6.391,1.127l-0.069-0.394l-2.312-1.619l-0.393,0.069c-1.174,2.539-2.551,3.643-5.009,4.076
			c-7.815,1.378-11.864-6.929-13.58-16.662c-1.656-9.388-1.53-18.737,9.529-20.687c7.962-1.404,13.125,4.021,14.485,11.739
			L324.47,26.465z M312.793,61.416l-0.866-4.916l24.085-4.247l0.866,4.916L312.793,61.416z"/>
	</g>
	<g>
		<path fill="#EF4423" d="M352.768,45.245c-7.914,1.395-12.453-3.076-13.778-10.595l-4.152-23.545l6.193-1.092l4.282,24.281
			c0.416,2.359,1.185,3.846,2.292,4.665l7.864-1.387c0.761-1.148,0.975-2.808,0.559-5.167l-4.282-24.281l6.194-1.092l4.151,23.545
			C363.417,38.096,360.681,43.85,352.768,45.245z M342.284,56.216l-0.866-4.916l24.085-4.247l0.866,4.916L342.284,56.216z"/>
		<path fill="#EF4423" d="M372.051,41.084l-6.249-35.439l21.579-3.805l0.988,5.604l-12.928,2.28l-2.187,3.122l0.667,3.785
			l2.775,1.942l11.158-1.967l0.988,5.604l-11.158,1.967l-1.943,2.775l0.85,4.816l3.122,2.188l13.468-2.375l0.988,5.603
			L372.051,41.084z M371.774,51.016l-0.866-4.916l24.085-4.247l0.866,4.916L371.774,51.016z"/>
		<path fill="#EF4423" d="M401.265,45.816l-0.866-4.916l24.085-4.247l0.866,4.916L401.265,45.816z"/>
		<path fill="#EF4423" d="M430.755,40.616l-0.866-4.916l24.085-4.247l0.866,4.916L430.755,40.616z"/>
		<path fill="#EF4423" d="M460.245,35.416l-0.866-4.916l24.085-4.247l0.866,4.916L460.245,35.416z"/>
		<path fill="#EF4423" d="M489.735,30.216l-0.866-4.916l24.085-4.247l0.866,4.916L489.735,30.216z"/>
		<path fill="#EF4423" d="M519.226,25.016l-0.866-4.916l24.085-4.247l0.866,4.916L519.226,25.016z"/>
		<path fill="#EF4423" d="M548.716,19.816L547.85,14.9l24.085-4.247l0.866,4.916L548.716,19.816z"/>
		<path fill="#EF4423" d="M578.206,14.616L577.339,9.7l24.085-4.247l0.867,4.916L578.206,14.616z"/>
	</g>
	<g>
		<path fill="#EF4423" d="M-60.189,187.999l-0.867-4.916l24.085-4.247l0.867,4.916L-60.189,187.999z"/>
		<path fill="#EF4423" d="M-30.699,182.799l-0.867-4.916l24.085-4.247l0.867,4.916L-30.699,182.799z"/>
		<path fill="#EF4423" d="M-1.209,177.599l-0.867-4.916l24.085-4.246l0.867,4.916L-1.209,177.599z"/>
		<path fill="#EF4423" d="M28.281,172.399l-0.867-4.916l24.085-4.247l0.867,4.916L28.281,172.399z"/>
		<path fill="#EF4423" d="M57.771,167.199l-0.867-4.916l24.085-4.247l0.867,4.916L57.771,167.199z"/>
		<path fill="#EF4423" d="M87.261,161.999l-0.867-4.916l24.085-4.247l0.867,4.916L87.261,161.999z"/>
		<path fill="#EF4423" d="M116.751,156.799l-0.867-4.916l24.085-4.246l0.867,4.916L116.751,156.799z"/>
		<path fill="#EF4423" d="M146.242,151.6l-0.867-4.916l24.085-4.247l0.867,4.916L146.242,151.6z"/>
		<path fill="#EF4423" d="M175.732,146.399l-0.867-4.916l24.085-4.247l0.867,4.916L175.732,146.399z"/>
		<path fill="#EF4423" d="M216.098,130.16c-11.108,1.958-14.14-7.188-15.743-16.28c-1.604-9.095-1.874-18.675,9.234-20.634
			c8.455-1.491,12.539,3.566,14.817,11.021l-7.17,1.873l-0.832-4.719c-1.235-2.113-3.105-2.95-5.809-2.473
			c-2.703,0.477-4.175,1.902-4.612,4.311l3.302,18.726c1.234,2.114,3.105,2.951,5.808,2.475c2.704-0.478,4.176-1.902,4.613-4.312
			l-0.832-4.718l7.379-0.694C226.661,122.519,224.553,128.669,216.098,130.16z M205.222,141.199l-0.867-4.916l24.085-4.247
			l0.867,4.916L205.222,141.199z"/>
		<path fill="#EF4423" d="M249.784,123.459l-2.306-13.074l-2.775-1.943l-4.719,0.832l-1.943,2.775l2.306,13.074l-6.193,1.092
			l-6.249-35.439l6.193-1.092l2.141,12.141l2.775,1.943l4.719-0.832l1.944-2.775l-2.141-12.141l6.193-1.092l6.249,35.44
			L249.784,123.459z M234.712,135.999l-0.867-4.916l24.085-4.247l0.867,4.916L234.712,135.999z"/>
		<path fill="#EF4423" d="M280.798,117.99l-0.937-3.585l-1.832-4.644l-9.929,1.75l-0.134,4.991l0.346,3.688l-6.979,1.23
			l0.929-32.954l-0.346-3.689l12.78-2.254l0.937,3.586l12.145,30.649L280.798,117.99z M264.203,130.799l-0.867-4.916l24.085-4.246
			l0.866,4.916L264.203,130.799z M270.246,90.051l-1.573,0.277l-0.337,13.034l2.711,2.157l2.163-0.381l1.811-2.955L270.246,90.051z"
			/>
		<path fill="#EF4423" d="M309.452,112.938l-3.432-19.464l-1.278,0.226l-0.442,2.662l0.238,3.657l-5.701,1.005l-1.025-3.519
			l-1.327-2.35l-1.278,0.225l3.433,19.463l-6.193,1.093l-6.249-35.439l7.324-1.292l1.133,3.551l4.724,8.391l1.376-0.243l1.568-9.5
			l-0.15-3.724l7.226-1.274l6.249,35.439L309.452,112.938z M293.693,125.6l-0.867-4.916l24.085-4.247l0.867,4.916L293.693,125.6z"/>
		<path fill="#EF4423" d="M332.994,94.697l-3.539,0.624l-1.943,2.775l1.993,11.305l-6.39,1.127l-6.249-35.439l12.289-2.167
			c6.193-1.092,11.998,1.939,13.229,8.919C343.615,88.82,339.188,93.605,332.994,94.697z M323.184,120.399l-0.867-4.916
			l24.085-4.247l0.867,4.916L323.184,120.399z M329.275,78.78l-2.654,0.468l-2.187,3.123l0.944,5.357l2.776,1.943l2.949-0.52
			c3.489-0.615,4.979-2.803,4.398-6.097C334.922,79.761,332.766,78.165,329.275,78.78z"/>
	</g>
	<g>
		<path fill="#EF4423" d="M350.993,105.613l-0.937-5.309l6.488-1.144l1.943-2.775l-3.545-20.104l-2.775-1.943l-6.488,1.144
			l-0.936-5.309l24.085-4.247l0.936,5.309l-6.488,1.144l-1.942,2.775l3.544,20.104l2.775,1.943l6.488-1.144l0.936,5.309
			L350.993,105.613z M352.683,115.197l-0.866-4.916l24.085-4.246l0.866,4.916L352.683,115.197z"/>
		<path fill="#EF4423" d="M392.656,99.027c-11.109,1.959-14.141-7.187-15.744-16.28c-1.604-9.095-1.874-18.675,9.235-20.634
			c11.107-1.958,14.131,7.137,15.734,16.231C403.485,87.438,403.765,97.069,392.656,99.027z M382.173,109.998l-0.866-4.916
			l24.085-4.247l0.867,4.916L382.173,109.998z M392.96,70.288c-1.233-2.113-3.104-2.95-5.808-2.473
			c-2.704,0.477-4.176,1.902-4.612,4.311l3.302,18.727c1.234,2.114,3.105,2.951,5.809,2.474c2.704-0.477,4.175-1.902,4.612-4.311
			L392.96,70.288z"/>
	</g>
	<g>
		<path fill="#EF4423" d="M426.639,92.273l-1.204-3.387l-10.297-13.845l-1.131,0.199L417.3,93.92l-6.193,1.092l-6.249-35.439
			l6.292-1.109l1.206,3.387l10.296,13.845l1.131-0.199l-3.294-18.679l6.193-1.092l6.249,35.439L426.639,92.273z M411.667,104.796
			l-0.867-4.915l24.085-4.247l0.866,4.915L411.667,104.796z"/>
		<path fill="#EF4423" d="M451.787,88.6c-8.258,1.456-13.309-2.469-15.21-10.953l7.373-1.3l0.806,4.571
			c1.09,1.582,3.125,2.491,6.025,1.979c4.03-0.71,5.017-3.165,4.592-5.573c-1.309-7.423-17.694-1.189-19.896-13.673
			c-1.188-6.734,3.066-10.779,9.604-11.932c6.832-1.205,12.088,1.872,13.88,9.16l-7.373,1.3l-0.649-3.688
			c-1.348-1.028-2.738-1.442-4.803-1.079c-2.851,0.503-4.378,2.191-3.971,4.5c0.962,5.457,17.521,0.205,19.879,13.575
			C463.292,82.567,458.472,87.421,451.787,88.6z M441.157,99.596l-0.867-4.915l24.085-4.247l0.866,4.915L441.157,99.596z"/>
		<path fill="#EF4423" d="M485.718,81.856l-2.305-13.074l-2.776-1.943l-4.719,0.832l-1.942,2.775l2.305,13.074l-6.193,1.092
			l-6.249-35.439l6.193-1.092l2.142,12.141l2.774,1.943l4.719-0.832l1.944-2.775l-2.142-12.141l6.193-1.092l6.249,35.439
			L485.718,81.856z M470.646,94.396l-0.866-4.915l24.084-4.247l0.867,4.915L470.646,94.396z"/>
	</g>
	<g>
		<path fill="#EF4423" d="M498.448,79.612l-0.937-5.309L504,73.16l1.943-2.775l-3.545-20.104l-2.775-1.943l-6.488,1.144
			l-0.936-5.309l24.085-4.247l0.936,5.309l-6.488,1.144l-1.942,2.775l3.544,20.104l2.775,1.943l6.488-1.144l0.936,5.309
			L498.448,79.612z M500.138,89.197l-0.866-4.916l24.085-4.247l0.866,4.916L500.138,89.197z"/>
	</g>
	<g>
		<path fill="#EF4423" d="M539.441,58.294l-3.539,0.624l-1.943,2.775l1.993,11.305l-6.391,1.127l-6.249-35.439l12.289-2.167
			c6.193-1.092,11.999,1.939,13.229,8.919S545.635,57.202,539.441,58.294z M529.63,83.996l-0.866-4.915l24.085-4.247l0.867,4.915
			L529.63,83.996z M535.722,42.377l-2.654,0.468l-2.186,3.123l0.944,5.357l2.775,1.943l2.949-0.52
			c3.49-0.615,4.979-2.803,4.398-6.097C541.368,43.358,539.212,41.762,535.722,42.377z"/>
		<path fill="#EF4423" d="M559.12,78.796l-0.866-4.915l24.085-4.247l0.867,4.915L559.12,78.796z"/>
		<path fill="#EF4423" d="M588.61,73.596l-0.867-4.915l24.086-4.247l0.866,4.915L588.61,73.596z"/>
		<path fill="#EF4423" d="M618.101,68.396l-0.867-4.915l24.086-4.247l0.867,4.915L618.101,68.396z"/>
	</g>
</g>
<g>
	<g>
		<path fill="#EF4423" d="M-70.589,129.018l-0.867-4.916l24.085-4.247l0.867,4.916L-70.589,129.018z"/>
		<path fill="#EF4423" d="M-41.099,123.817l-0.867-4.916l24.085-4.247l0.867,4.916L-41.099,123.817z"/>
		<path fill="#EF4423" d="M-11.609,118.617l-0.867-4.916l24.085-4.246l0.867,4.916L-11.609,118.617z"/>
		<path fill="#EF4423" d="M16.19,103.833l-0.936-5.309l6.488-1.144l1.943-2.775l-3.545-20.104l-2.775-1.943l-6.488,1.144
			l-0.936-5.309l24.085-4.247l0.936,5.309l-6.488,1.144l-1.943,2.775l3.544,20.104l2.775,1.944l6.488-1.144l0.936,5.309
			L16.19,103.833z M17.881,113.418l-0.867-4.916l24.085-4.247l0.867,4.916L17.881,113.418z"/>
		<path fill="#EF4423" d="M62.344,95.694l-1.205-3.386L50.842,78.463l-1.131,0.2l3.293,18.679l-6.193,1.092l-6.249-35.439
			l6.292-1.109l1.206,3.386l10.297,13.845l1.13-0.199l-3.293-18.679l6.193-1.092l6.249,35.439L62.344,95.694z M47.372,108.218
			l-0.867-4.916l24.085-4.247l0.867,4.916L47.372,108.218z"/>
		<path fill="#EF4423" d="M86.525,91.431l-10.224,1.803l-6.249-35.439l10.224-1.803c11.895-2.098,14.947,5.727,16.646,15.361
			C98.621,80.985,98.421,89.333,86.525,91.431z M76.861,103.018l-0.867-4.916l24.085-4.247l0.867,4.916L76.861,103.018z
			 M87.983,63.198c-1.509-1.661-3.113-2.138-5.817-1.661l-2.064,0.364l-2.187,3.122l3.302,18.727l3.123,2.187l2.063-0.364
			c2.704-0.477,4.049-1.473,4.899-3.549L87.983,63.198z"/>
	</g>
	<g>
		<path fill="#EF4423" d="M104.666,88.232l-0.937-5.309l6.488-1.144l1.943-2.775L108.617,58.9l-2.775-1.943l-6.488,1.144
			l-0.936-5.309l24.085-4.247l0.936,5.309l-6.488,1.144l-1.943,2.775l3.545,20.104l2.774,1.943l6.488-1.144l0.937,5.309
			L104.666,88.232z M106.356,97.817l-0.867-4.916l24.085-4.247l0.867,4.916L106.356,97.817z"/>
	</g>
	<g>
		<path fill="#EF4423" d="M147.524,57.666l-0.901-5.112c-1.174-1.769-3.093-2.597-5.305-2.207c-2.703,0.477-4.421,1.947-4.908,4.363
			l3.233,18.334c0.931,2.116,2.388,3.481,5.189,2.987c1.377-0.243,2.744-1.396,4.445-3.825l1.214-1.734l-1.144-6.487l6.39-1.127
			l2.8,15.876l-6.391,1.127l-0.069-0.394l-2.312-1.619l-0.393,0.069c-1.175,2.539-2.551,3.643-5.009,4.076
			c-7.815,1.378-11.865-6.929-13.581-16.661c-1.655-9.388-1.53-18.737,9.529-20.687c7.963-1.404,13.126,4.021,14.487,11.739
			L147.524,57.666z M135.847,92.617l-0.867-4.916l24.085-4.247l0.867,4.916L135.847,92.617z"/>
		<path fill="#EF4423" d="M175.82,76.446c-11.109,1.958-14.14-7.186-15.744-16.28s-1.875-18.677,9.234-20.635
			c11.108-1.959,14.132,7.138,15.735,16.232S186.928,74.487,175.82,76.446z M165.337,87.417l-0.867-4.916l24.085-4.247l0.867,4.916
			L165.337,87.417z M176.125,47.707c-1.234-2.113-3.105-2.951-5.808-2.474c-2.703,0.477-4.176,1.903-4.613,4.311l3.302,18.727
			c1.234,2.114,3.105,2.95,5.809,2.473c2.704-0.477,4.175-1.902,4.612-4.311L176.125,47.707z"/>
		<path fill="#EF4423" d="M194.827,82.217l-0.867-4.916l24.085-4.247l0.867,4.916L194.827,82.217z"/>
		<path fill="#EF4423" d="M224.495,67.103l-6.249-35.439l6.39-1.126l4.706,26.69l3.584,2.509l13.271-2.34l1.006,5.702
			L224.495,67.103z M224.317,77.017l-0.867-4.916l24.085-4.247l0.867,4.916L224.317,77.017z"/>
		<path fill="#EF4423" d="M254.084,61.885l-6.249-35.439l21.579-3.805l0.988,5.604l-12.928,2.279l-2.186,3.123l0.667,3.785
			l2.775,1.942l11.158-1.968l0.988,5.604l-11.158,1.968l-1.943,2.775l0.85,4.816l3.122,2.187l13.468-2.375l0.988,5.603
			L254.084,61.885z M253.808,71.817l-0.867-4.916l24.085-4.247l0.867,4.916L253.808,71.817z"/>
		<path fill="#EF4423" d="M299.893,53.808l-0.937-3.586l-1.832-4.643l-9.929,1.751l-0.134,4.99l0.347,3.689l-6.98,1.231l0.93-32.956
			l-0.346-3.689l12.78-2.253l0.937,3.584l12.145,30.65L299.893,53.808z M283.298,66.617l-0.867-4.916l24.084-4.247l0.867,4.916
			L283.298,66.617z M289.34,25.869l-1.572,0.277l-0.337,13.034l2.711,2.156l2.163-0.382l1.811-2.953L289.34,25.869z"/>
	</g>
	<g>
		<path fill="#EF4423" d="M324.47,26.465l-0.9-5.112c-1.174-1.769-3.094-2.597-5.306-2.207c-2.703,0.477-4.421,1.946-4.907,4.363
			l3.233,18.334c0.931,2.116,2.387,3.481,5.188,2.987c1.377-0.243,2.744-1.396,4.445-3.825l1.214-1.734l-1.144-6.487l6.391-1.127
			l2.799,15.876l-6.391,1.127l-0.069-0.394l-2.312-1.619l-0.393,0.069c-1.174,2.539-2.551,3.643-5.009,4.076
			c-7.815,1.378-11.864-6.929-13.58-16.662c-1.656-9.388-1.53-18.737,9.529-20.687c7.962-1.404,13.125,4.021,14.485,11.739
			L324.47,26.465z M312.793,61.416l-0.866-4.916l24.085-4.247l0.866,4.916L312.793,61.416z"/>
	</g>
	<g>
		<path fill="#EF4423" d="M352.768,45.245c-7.914,1.395-12.453-3.076-13.778-10.595l-4.152-23.545l6.193-1.092l4.282,24.281
			c0.416,2.359,1.185,3.846,2.292,4.665l7.864-1.387c0.761-1.148,0.975-2.808,0.559-5.167l-4.282-24.281l6.194-1.092l4.151,23.545
			C363.417,38.096,360.681,43.85,352.768,45.245z M342.284,56.216l-0.866-4.916l24.085-4.247l0.866,4.916L342.284,56.216z"/>
		<path fill="#EF4423" d="M372.051,41.084l-6.249-35.439l21.579-3.805l0.988,5.604l-12.928,2.28l-2.187,3.122l0.667,3.785
			l2.775,1.942l11.158-1.967l0.988,5.604l-11.158,1.967l-1.943,2.775l0.85,4.816l3.122,2.188l13.468-2.375l0.988,5.603
			L372.051,41.084z M371.774,51.016l-0.866-4.916l24.085-4.247l0.866,4.916L371.774,51.016z"/>
		<path fill="#EF4423" d="M401.265,45.816l-0.866-4.916l24.085-4.247l0.866,4.916L401.265,45.816z"/>
		<path fill="#EF4423" d="M430.755,40.616l-0.866-4.916l24.085-4.247l0.866,4.916L430.755,40.616z"/>
		<path fill="#EF4423" d="M460.245,35.416l-0.866-4.916l24.085-4.247l0.866,4.916L460.245,35.416z"/>
		<path fill="#EF4423" d="M489.735,30.216l-0.866-4.916l24.085-4.247l0.866,4.916L489.735,30.216z"/>
		<path fill="#EF4423" d="M519.226,25.016l-0.866-4.916l24.085-4.247l0.866,4.916L519.226,25.016z"/>
		<path fill="#EF4423" d="M548.716,19.816L547.85,14.9l24.085-4.247l0.866,4.916L548.716,19.816z"/>
		<path fill="#EF4423" d="M578.206,14.616L577.339,9.7l24.085-4.247l0.867,4.916L578.206,14.616z"/>
	</g>
	<g>
		<path fill="#EF4423" d="M-60.189,187.999l-0.867-4.916l24.085-4.247l0.867,4.916L-60.189,187.999z"/>
		<path fill="#EF4423" d="M-30.699,182.799l-0.867-4.916l24.085-4.247l0.867,4.916L-30.699,182.799z"/>
		<path fill="#EF4423" d="M-1.209,177.599l-0.867-4.916l24.085-4.246l0.867,4.916L-1.209,177.599z"/>
		<path fill="#EF4423" d="M28.281,172.399l-0.867-4.916l24.085-4.247l0.867,4.916L28.281,172.399z"/>
		<path fill="#EF4423" d="M57.771,167.199l-0.867-4.916l24.085-4.247l0.867,4.916L57.771,167.199z"/>
		<path fill="#EF4423" d="M87.261,161.999l-0.867-4.916l24.085-4.247l0.867,4.916L87.261,161.999z"/>
		<path fill="#EF4423" d="M116.751,156.799l-0.867-4.916l24.085-4.246l0.867,4.916L116.751,156.799z"/>
		<path fill="#EF4423" d="M146.242,151.6l-0.867-4.916l24.085-4.247l0.867,4.916L146.242,151.6z"/>
		<path fill="#EF4423" d="M175.732,146.399l-0.867-4.916l24.085-4.247l0.867,4.916L175.732,146.399z"/>
		<path fill="#EF4423" d="M216.098,130.16c-11.108,1.958-14.14-7.188-15.743-16.28c-1.604-9.095-1.874-18.675,9.234-20.634
			c8.455-1.491,12.539,3.566,14.817,11.021l-7.17,1.873l-0.832-4.719c-1.235-2.113-3.105-2.95-5.809-2.473
			c-2.703,0.477-4.175,1.902-4.612,4.311l3.302,18.726c1.234,2.114,3.105,2.951,5.808,2.475c2.704-0.478,4.176-1.902,4.613-4.312
			l-0.832-4.718l7.379-0.694C226.661,122.519,224.553,128.669,216.098,130.16z M205.222,141.199l-0.867-4.916l24.085-4.247
			l0.867,4.916L205.222,141.199z"/>
		<path fill="#EF4423" d="M249.784,123.459l-2.306-13.074l-2.775-1.943l-4.719,0.832l-1.943,2.775l2.306,13.074l-6.193,1.092
			l-6.249-35.439l6.193-1.092l2.141,12.141l2.775,1.943l4.719-0.832l1.944-2.775l-2.141-12.141l6.193-1.092l6.249,35.44
			L249.784,123.459z M234.712,135.999l-0.867-4.916l24.085-4.247l0.867,4.916L234.712,135.999z"/>
		<path fill="#EF4423" d="M280.798,117.99l-0.937-3.585l-1.832-4.644l-9.929,1.75l-0.134,4.991l0.346,3.688l-6.979,1.23
			l0.929-32.954l-0.346-3.689l12.78-2.254l0.937,3.586l12.145,30.649L280.798,117.99z M264.203,130.799l-0.867-4.916l24.085-4.246
			l0.866,4.916L264.203,130.799z M270.246,90.051l-1.573,0.277l-0.337,13.034l2.711,2.157l2.163-0.381l1.811-2.955L270.246,90.051z"
			/>
		<path fill="#EF4423" d="M309.452,112.938l-3.432-19.464l-1.278,0.226l-0.442,2.662l0.238,3.657l-5.701,1.005l-1.025-3.519
			l-1.327-2.35l-1.278,0.225l3.433,19.463l-6.193,1.093l-6.249-35.439l7.324-1.292l1.133,3.551l4.724,8.391l1.376-0.243l1.568-9.5
			l-0.15-3.724l7.226-1.274l6.249,35.439L309.452,112.938z M293.693,125.6l-0.867-4.916l24.085-4.247l0.867,4.916L293.693,125.6z"/>
		<path fill="#EF4423" d="M332.994,94.697l-3.539,0.624l-1.943,2.775l1.993,11.305l-6.39,1.127l-6.249-35.439l12.289-2.167
			c6.193-1.092,11.998,1.939,13.229,8.919C343.615,88.82,339.188,93.605,332.994,94.697z M323.184,120.399l-0.867-4.916
			l24.085-4.247l0.867,4.916L323.184,120.399z M329.275,78.78l-2.654,0.468l-2.187,3.123l0.944,5.357l2.776,1.943l2.949-0.52
			c3.489-0.615,4.979-2.803,4.398-6.097C334.922,79.761,332.766,78.165,329.275,78.78z"/>
	</g>
	<g>
		<path fill="#EF4423" d="M350.993,105.613l-0.937-5.309l6.488-1.144l1.943-2.775l-3.545-20.104l-2.775-1.943l-6.488,1.144
			l-0.936-5.309l24.085-4.247l0.936,5.309l-6.488,1.144l-1.942,2.775l3.544,20.104l2.775,1.943l6.488-1.144l0.936,5.309
			L350.993,105.613z M352.683,115.197l-0.866-4.916l24.085-4.246l0.866,4.916L352.683,115.197z"/>
		<path fill="#EF4423" d="M392.656,99.027c-11.109,1.959-14.141-7.187-15.744-16.28c-1.604-9.095-1.874-18.675,9.235-20.634
			c11.107-1.958,14.131,7.137,15.734,16.231C403.485,87.438,403.765,97.069,392.656,99.027z M382.173,109.998l-0.866-4.916
			l24.085-4.247l0.867,4.916L382.173,109.998z M392.96,70.288c-1.233-2.113-3.104-2.95-5.808-2.473
			c-2.704,0.477-4.176,1.902-4.612,4.311l3.302,18.727c1.234,2.114,3.105,2.951,5.809,2.474c2.704-0.477,4.175-1.902,4.612-4.311
			L392.96,70.288z"/>
	</g>
	<g>
		<path fill="#EF4423" d="M426.639,92.273l-1.204-3.387l-10.297-13.845l-1.131,0.199L417.3,93.92l-6.193,1.092l-6.249-35.439
			l6.292-1.109l1.206,3.387l10.296,13.845l1.131-0.199l-3.294-18.679l6.193-1.092l6.249,35.439L426.639,92.273z M411.667,104.796
			l-0.867-4.915l24.085-4.247l0.866,4.915L411.667,104.796z"/>
		<path fill="#EF4423" d="M451.787,88.6c-8.258,1.456-13.309-2.469-15.21-10.953l7.373-1.3l0.806,4.571
			c1.09,1.582,3.125,2.491,6.025,1.979c4.03-0.71,5.017-3.165,4.592-5.573c-1.309-7.423-17.694-1.189-19.896-13.673
			c-1.188-6.734,3.066-10.779,9.604-11.932c6.832-1.205,12.088,1.872,13.88,9.16l-7.373,1.3l-0.649-3.688
			c-1.348-1.028-2.738-1.442-4.803-1.079c-2.851,0.503-4.378,2.191-3.971,4.5c0.962,5.457,17.521,0.205,19.879,13.575
			C463.292,82.567,458.472,87.421,451.787,88.6z M441.157,99.596l-0.867-4.915l24.085-4.247l0.866,4.915L441.157,99.596z"/>
		<path fill="#EF4423" d="M485.718,81.856l-2.305-13.074l-2.776-1.943l-4.719,0.832l-1.942,2.775l2.305,13.074l-6.193,1.092
			l-6.249-35.439l6.193-1.092l2.142,12.141l2.774,1.943l4.719-0.832l1.944-2.775l-2.142-12.141l6.193-1.092l6.249,35.439
			L485.718,81.856z M470.646,94.396l-0.866-4.915l24.084-4.247l0.867,4.915L470.646,94.396z"/>
	</g>
	<g>
		<path fill="#EF4423" d="M498.448,79.612l-0.937-5.309L504,73.16l1.943-2.775l-3.545-20.104l-2.775-1.943l-6.488,1.144
			l-0.936-5.309l24.085-4.247l0.936,5.309l-6.488,1.144l-1.942,2.775l3.544,20.104l2.775,1.943l6.488-1.144l0.936,5.309
			L498.448,79.612z M500.138,89.197l-0.866-4.916l24.085-4.247l0.866,4.916L500.138,89.197z"/>
	</g>
	<g>
		<path fill="#EF4423" d="M539.441,58.294l-3.539,0.624l-1.943,2.775l1.993,11.305l-6.391,1.127l-6.249-35.439l12.289-2.167
			c6.193-1.092,11.999,1.939,13.229,8.919S545.635,57.202,539.441,58.294z M529.63,83.996l-0.866-4.915l24.085-4.247l0.867,4.915
			L529.63,83.996z M535.722,42.377l-2.654,0.468l-2.186,3.123l0.944,5.357l2.775,1.943l2.949-0.52
			c3.49-0.615,4.979-2.803,4.398-6.097C541.368,43.358,539.212,41.762,535.722,42.377z"/>
		<path fill="#EF4423" d="M559.12,78.796l-0.866-4.915l24.085-4.247l0.867,4.915L559.12,78.796z"/>
		<path fill="#EF4423" d="M588.61,73.596l-0.867-4.915l24.086-4.247l0.866,4.915L588.61,73.596z"/>
		<path fill="#EF4423" d="M618.101,68.396l-0.867-4.915l24.086-4.247l0.867,4.915L618.101,68.396z"/>
	</g>
</g>
<g>
</g>
<g>
</g>
<g>
</g>
<g>
</g>
<g>
</g>
<g>
</g>
</svg>
